<svg xmlns="http://www.w3.org/2000/svg" viewBox="0 0 1024 1024" preserveAspectRatio="xMidYMid slice">
<!-- Decorative topographic contours (guide screen background).
     Source: the app's own kungsleden-contours.pmtiles (contour vectors from
     the Copernicus GLO-30 DEM via scripts/build-terrain-map.sh; same
     attribution as the in-app terrain credits).
     Extraction: scripts/generate-contour-backgrounds.mjs — z11 tiles
     x1128-1128 y489-489
     (approx 68.073N 18.281E to 68.008N 18.457E),
     RDP-simplified and Catmull-Rom smoothed. Geographically real crop,
     purely decorative: no labels, no scale, never a navigation surface. -->
<g fill="none" stroke="#5c7b8a" stroke-opacity="0.42" stroke-width="1" stroke-linecap="round" stroke-linejoin="round">
<path d="M414 667.8C410.4 668 400.8 670.2 392.3 669.3C383.8 668.3 370.6 664.9 363 662.3C355.4 659.6 352.1 657.3 346.8 653.5C341.4 649.7 335 642.5 330.8 639.3C326.5 636 323.2 634.9 321 634C318.8 633.1 320.5 632.5 317.8 633.8C315 635 308.4 637.8 304.8 641.3C301.1 644.8 300.3 650.8 296 654.8C291.7 658.7 282.9 663 279 665C275.1 667 275.2 666.1 272.5 666.5C269.8 666.9 268.2 667.6 262.8 667.5C257.3 667.4 246 666.9 240 665.8C234 664.6 231.3 662.8 227 660.5C222.7 658.3 221.5 658.3 214.3 652.3C207 646.3 192.4 632 183.3 624.5C174.1 617 164.8 611.6 159.5 607.3C154.2 602.9 160.8 605.7 151.3 598.5C141.8 591.3 114.1 572.6 102.5 564C90.9 555.4 88.7 553.3 81.5 546.8C74.3 540.3 64.2 531.5 59.3 525C54.3 518.5 51.9 513.5 52 507.8C52.1 502 58.5 495.5 59.8 490.5C61 485.5 62.6 486.5 59.3 477.5C55.9 468.5 44 444.9 39.5 436.3C35 427.6 35.2 431.6 32.3 425.5C29.3 419.4 24.1 408.9 21.8 399.5C19.4 390.1 17.5 382.3 18.3 369.3C19 356.3 24 331.3 26.5 321.5C29 311.7 30.3 313 33 310.5C35.7 308 34.1 301.8 42.5 306.5C50.9 311.3 71.4 331.9 83.3 339C95.1 346.1 104 343.5 113.8 349.3C123.5 355 135.5 366.6 142 373.5C148.5 380.4 149.3 383.5 153 390.8C156.8 398 160.8 404.5 164.5 416.8C168.2 429 171.3 454.2 175.3 464.5C179.2 474.8 182.8 474.7 188.3 478.5C193.7 482.3 203.4 485.9 207.8 487.5C212.1 489.1 212.6 488.5 214.3 488C215.9 487.5 215.4 488.4 217.5 484.5C219.6 480.6 225 470.8 226.8 464.5C228.5 458.3 227.7 450 228.3 447C228.8 444 228.8 445.3 230.3 446.3C231.7 447.2 234.8 452.4 236.8 452.5C238.7 452.6 239.9 450.8 242 447C244.1 443.2 248.1 436.2 249.5 429.8C250.9 423.3 250.8 419.8 250.3 408.3C249.7 396.7 248.3 375.7 246 360.5C243.7 345.3 238.9 327 236.3 317.3C233.6 307.5 233.4 307.9 230.3 302.3C227.1 296.6 224.5 291.3 217.5 283.3C210.5 275.3 195.3 262.3 188.3 254.3C181.2 246.2 177.5 239.7 175 235C172.5 230.3 173.8 235.6 173 226.3C172.2 216.9 173 191 170 178.8C167 166.5 157.4 159.3 154.8 152.8C152.1 146.3 153.9 142.7 154 139.8C154.1 136.8 153.9 137.4 155.3 135.3C156.6 133.1 154.9 133.7 162 126.8C169.1 119.8 189.3 101.1 198 93.8C206.7 86.4 208 85.9 214.3 82.8C220.5 79.6 231.5 79 235.5 74.8C239.5 70.5 238.8 61.8 238.5 57.5C238.2 53.2 234.3 51.7 233.5 48.8C232.7 45.8 231.2 49.4 233.8 40C236.3 30.6 245 2.3 248.8 -7.7C252.5 -17.7 255 -18 256.3 -20"/>
<path d="M360.5 -20C362.2 -17.2 369.2 -11.8 370.8 -3.2C372.3 5.3 370.5 23.5 369.8 31.5C369 39.5 369.3 37.3 366.5 44.5C363.7 51.7 359.1 63.2 353 74.8C346.9 86.3 334.8 104.4 330 113.8C325.2 123.1 325.7 124.5 324.3 131C322.8 137.5 321.6 145.5 321.3 152.8C320.9 160 320.9 167 322 174.3C323.1 181.5 326.5 188.8 328 196C329.5 203.3 329.8 213.4 330.8 217.8C331.8 222.1 331.8 222.9 334 222.3C336.2 221.6 341.5 213.8 343.8 213.8C346 213.7 347.2 218.5 347.8 222C348.3 225.5 348.8 227 347.3 235C345.8 243 339.3 261.3 338.8 269.8C338.2 278.3 342.4 282.7 343.8 286C345.1 289.3 344.1 288.7 346.8 289.5C349.4 290.3 354.9 291.2 359.8 291C364.6 290.8 366.3 288.6 376 288.5C385.7 288.4 409.9 290.5 418 290.5C426.1 290.5 422.6 291.3 424.5 288.5C426.4 285.8 429 279.3 429.5 274C430 268.7 427.3 262.5 427.8 256.8C428.2 251 430.6 243.7 432.3 239.3C433.9 234.8 433.7 234.3 437.5 230C441.3 225.7 449.8 225.4 455 213.3C460.3 201.1 464.9 168.9 469 157C473.1 145.1 476.7 145.2 479.5 141.8C482.3 138.3 473.3 130.3 486 136.5C498.8 142.7 541.5 169.5 556 178.8C570.5 188 566.3 186 572.8 191.8C579.3 197.5 590.1 208.2 595 213.3C599.9 218.3 600 218.4 602 222C604 225.6 605.6 230.7 607.3 235C608.9 239.3 610.5 242.2 612 248C613.5 253.8 614 264.3 616.3 269.8C618.5 275.2 615.7 275.5 625.3 280.8C634.8 286 663.5 299.4 673.8 301.5C684 303.6 680.8 299.4 686.8 293.3C692.7 287.1 704.7 269.8 709.5 264.8C714.3 259.8 709.2 261 715.8 263.3C722.3 265.5 738.8 271.6 749 278.3C759.3 284.9 771 296.8 777.3 303.3C783.5 309.8 783.5 314.4 786.8 317.3C790 320.1 785.4 320.7 796.8 320.5C808.1 320.3 841.5 317.9 855 316.3C868.5 314.6 873.4 311.9 877.8 310.5C882.1 309.1 880.1 309.8 881 308C881.9 306.3 881.9 302.1 883 300C884.1 297.9 886.5 297 887.5 295.5C888.5 294 889.9 298.5 888.8 291.3C887.6 284 882 261.6 880.5 252.3C879 242.9 880.5 240 879.8 235C879 230 882 231.3 875.8 222C869.5 212.7 855.5 194.9 842 179C828.5 163.1 803.9 136.5 794.8 126.8C785.6 117 791 123 787 120.5C783 118 776.4 114.1 771 111.8C765.6 109.4 761.8 109.2 754.8 106.3C747.7 103.3 736.8 98.2 728.8 94C720.7 89.8 721.9 88.3 706.3 81.3C690.6 74.2 650.7 59 635 51.8C619.3 44.5 619.8 42.8 612.3 37.5C604.7 32.2 594.9 24.6 589.5 20C584.1 15.4 582.8 15.1 579.8 9.8C576.8 4.4 573.1 -7 571.5 -12C569.9 -17 570.5 -18.7 570.3 -20"/>
<path d="M757.5 -20C759.2 -17.6 764.8 -9.1 767.8 -5.7C770.7 -2.4 772.3 -3.3 775 0C777.7 3.3 779.6 11 783.8 14C787.9 17 796.2 17.9 800 18.3C803.8 18.6 804.4 17.4 806.5 16C808.6 14.6 810.3 15.8 812.5 9.8C814.7 3.8 818.3 -15 819.5 -20"/>
<path d="M986.5 -20C987.3 -17.4 988.6 -8.1 991 -4.5C993.4 -0.9 993.2 -0.8 1000.8 1.8C1008.3 4.3 1029.7 8.7 1036.3 10.8C1042.8 12.8 1038.7 12.1 1040 14C1041.3 15.9 1043.3 20.9 1044 22.3"/>
<path d="M1044 129.5C1040 132 1025.3 140.6 1020 144.5C1014.7 148.4 1014.2 149.2 1012 152.8C1009.8 156.3 1008.5 160 1007 165.8C1005.5 171.5 1003.8 182.4 1003.3 187.3C1002.8 192.1 1003.4 192.8 1004 195C1004.6 197.2 1004.3 197.5 1007 200.3C1009.7 203 1016.8 209.6 1020 211.8C1023.3 213.9 1022.5 213.3 1026.5 213.3C1030.5 213.2 1041.1 211.6 1044 211.3"/>
<path d="M1044 262.5C1041.6 264.8 1037.1 270.3 1029.8 276.5C1022.4 282.8 1006.4 294.7 1000 300C993.6 305.3 993.6 305.6 991.5 308.5C989.4 311.4 986.8 313.4 987.3 317.3C987.7 321.1 987.7 326 994.3 331.8C1000.8 337.5 1020.9 347.9 1026.8 352C1032.6 356.1 1028.8 354.3 1029.3 356.3C1029.8 358.3 1027.3 363.7 1029.8 364C1032.2 364.3 1041.6 359 1044 358"/>
<path d="M1044 650C1041.6 649.6 1034.3 647.3 1029.8 647.5C1025.2 647.7 1023.8 651.3 1016.8 651C1009.8 650.7 996.4 645.8 987.8 645.5C979.1 645.2 972 648.9 965 649.3C958 649.6 952.2 647.4 945.8 647.5C939.3 647.6 933.3 650.3 926.3 649.8C919.2 649.2 909.2 646.3 903.5 644.3C897.8 642.2 894.6 639.3 892.3 637.5C889.9 635.7 889.8 635.4 889.3 633.3C888.7 631.1 889.2 626.7 888.8 624.5C888.3 622.3 888.6 622.4 886.5 620.3C884.4 618.1 880.4 616.5 876.3 611.5C872.1 606.5 866.1 594.7 861.5 590C856.9 585.3 852.3 586.8 848.5 583.3C844.7 579.7 840.9 571.3 838.8 568.5C836.6 565.7 837.1 566.5 835.5 566.3C833.9 566 832.5 565.9 829.3 567.3C826 568.6 821.1 569.6 816.3 574.3C811.4 578.9 804.3 590.8 800 595.3C795.7 599.8 795.6 600 790.3 601.3C784.9 602.5 773.1 603 767.8 602.8C762.4 602.5 764 603.5 758 600C752 596.5 739 588 732 582C725 576 722 573.5 715.8 564C709.5 554.5 701 538.2 694.5 525C688 511.8 680.7 492.7 677 484.8C673.3 476.8 674.9 480.2 672.3 477.5C669.6 474.8 665.3 471.1 661.3 468.8C657.2 466.4 651.8 464.5 648 463.5C644.2 462.5 641.2 462.3 638.3 462.5C635.3 462.7 633 463.3 630.3 464.5C627.5 465.7 624.4 466.6 622 469.5C619.6 472.4 617 476.8 615.8 481.8C614.5 486.7 612.8 490.3 614.3 499C615.7 507.7 623.2 526.5 624.5 533.8C625.8 541 623 540.1 622 542.3C621 544.4 622 543.8 618.3 546.8C614.5 549.8 604 556.3 599.3 560.3C594.5 564.2 595.4 567.4 589.5 570.5C583.6 573.6 578.3 577.3 563.8 578.8C549.2 580.2 515.8 579.3 502.3 579C488.7 578.7 486.2 576.6 482.3 577C478.3 577.4 480 576.9 478.5 581.3C477 585.6 476.6 596.2 473 603C469.4 609.8 461.3 614.8 457 622C452.7 629.2 450 641 447.3 646.3C444.5 651.5 444 650.5 440.8 653.3C437.5 656 432.2 660.1 427.8 662.5C423.3 664.9 416.3 666.9 414 667.8"/>
<path d="M273 654.8C271.8 654.9 271 656 266 655.8C261 655.5 251.3 655.6 243.3 653.3C235.3 650.9 225 647.2 218 641.8C211 636.3 206.2 625.5 201.3 620.5C196.3 615.5 192 614.9 188.3 611.5C184.5 608.1 183.3 604.8 178.5 600C173.7 595.2 166.8 588.8 159.3 582.5C151.7 576.3 139.8 566.9 133.3 562.5C126.8 558.1 125.1 559 120.3 556C115.4 553 110.6 549.7 104 544.5C97.4 539.3 85 529.7 80.8 525C76.5 520.3 77.6 520.5 78.3 516.3C78.9 512 83.3 504.3 84.8 499.3C86.2 494.2 88 491.8 87 486C86 480.2 81.5 470.3 79 464.5C76.5 458.8 73.4 459.5 71.8 451.5C70.1 443.5 69.1 429.8 69.3 416.8C69.4 403.8 71.6 382.1 72.8 373.5C73.9 364.9 74.5 367.5 76 365C77.5 362.5 80 359.7 81.5 358.3C83 356.8 82 355.8 84.8 356.5C87.5 357.2 92.4 360.9 97.8 362.5C103.1 364.1 112.2 364.6 117 366.3C121.8 367.9 123.5 369.1 126.8 372.5C130 375.9 134.4 382.7 136.5 386.5C138.6 390.3 138.7 391.6 139.3 395.3C139.8 398.9 138.4 403.2 140 408.3C141.6 413.3 147 416.9 149 425.5C151 434.1 150.5 449.2 152.3 460C154 470.8 157.2 483.3 159.5 490.5C161.8 497.8 162.5 497.7 166.3 503.5C170 509.3 177.5 520.3 181.8 525.3C186 530.2 188.3 531.1 191.5 533C194.8 534.9 196.9 536.2 201.3 536.5C205.6 536.8 213.2 535.8 217.5 534.8C221.8 533.7 224.5 532.3 227 530C229.5 527.7 230.2 526.6 232.3 520.8C234.3 514.9 236 501.6 239.5 494.8C243 487.9 245.4 484.9 253 479.8C260.6 474.6 277.2 466.9 285.3 464C293.3 461.1 297.8 463.9 301.5 462.5C305.3 461.1 307 458.3 307.8 455.8C308.5 453.2 307.3 449.9 306.3 447C305.3 444.1 305.8 442.9 301.8 438.5C297.8 434.1 286.9 426.3 282.3 420.5C277.6 414.7 278.8 420.3 273.8 403.8C268.7 387.3 256.9 339.5 251.8 321.5C246.6 303.5 246 301.9 243 295.5C240 289.1 236.6 288 233.5 283C230.4 278 229 271.1 224.3 265.3C219.5 259.4 209.3 252.3 205 248C200.8 243.7 199.9 251.5 198.8 239.3C197.6 227 198.7 187.3 198.3 174.3C197.8 161.3 197.7 166.3 196.3 161.3C194.8 156.2 189.5 148.6 189.8 144C190 139.4 193.9 137.4 198 133.5C202.1 129.6 207.8 123.9 214.3 120.8C220.7 117.6 229.3 117.1 236.8 114.5C244.3 111.9 254.7 107.3 259.3 105C263.8 102.7 260.3 108 264 100.8C267.7 93.5 278.3 71.1 281.5 61.8C284.8 52.4 283.4 49.5 283.5 44.5C283.6 39.5 281.7 36.6 282 31.5C282.3 26.4 282.8 19.3 285.5 14C288.3 8.8 294.2 5.7 298.5 0C302.8 -5.7 309.1 -16.7 311.3 -20"/>
<path d="M337 -20C338.6 -18.4 344.1 -13.8 346.8 -10.5C349.4 -7.2 351.7 -3.4 353 0C354.3 3.4 354.5 4.5 354.8 9.8C355 15 356 24.3 354.5 31.5C353 38.7 352.1 42.2 346 53C339.9 63.8 325.6 81.3 317.8 96.5C309.9 111.7 301.6 128.9 299 144C296.4 159.1 301.9 175.7 302 187.3C302.1 198.8 298.8 200.3 299.8 213.3C300.7 226.3 305.7 249.4 307.5 265.3C309.3 281.1 308.9 297 310.5 308.5C312.1 320 313.1 325.2 317 334.5C320.9 343.8 329.5 356.7 334 364.3C338.5 371.8 340.5 375.5 343.8 380C347 384.5 350.6 388.5 353.3 391C355.9 393.5 356.5 393.7 359.8 395C363 396.3 368.9 399 372.8 399C376.6 399 377.9 398.1 382.8 395.3C387.6 392.4 397.3 385.6 402 382C406.7 378.4 409.3 375.6 411 373.5C412.7 371.4 412.2 373.6 412.3 369.3C412.3 364.9 410.8 352.3 411.3 347.5C411.7 342.7 410.9 342.2 414.8 340.5C418.6 338.8 428.3 339.3 434.3 337.5C440.2 335.7 447.1 332.9 450.5 329.5C453.9 326.1 455.2 324.3 454.8 317.3C454.3 310.2 449.2 295.7 447.8 287C446.3 278.3 446.1 270.3 446 265.3C445.9 260.2 445.9 259.6 447 256.8C448.1 253.9 449 251.3 452.8 248C456.5 244.8 466.2 240.1 469.8 237.3C473.3 234.4 472.5 239.8 474.3 230.8C476 221.7 478.4 193.8 480.3 183C482.1 172.2 484 169.5 485.5 165.8C487 162 488.1 161.3 489.3 160.3C490.4 159.2 486 155.5 492.5 159.3C499 163 518 176.9 528 183C538 189.1 544.7 190.2 552.5 196C560.3 201.8 569.1 210.4 574.8 217.8C580.4 225.1 583.6 229.9 586.5 240C589.4 250.1 591.3 268.3 592.3 278.3C593.2 288.3 592.8 290.6 592 300C591.2 309.4 587.4 327 587.5 334.5C587.6 342 588.8 339.5 592.8 345.3C596.8 351 607.7 363.4 611.5 369.3C615.3 375.1 614.8 376.7 615.5 380.3C616.2 383.8 616.8 383.2 615.8 390.8C614.8 398.3 610.1 417.5 609.5 425.5C608.9 433.5 612.9 434.2 612.3 438.5C611.6 442.8 608.8 446.5 605.5 451.5C602.3 456.5 595.7 461.5 592.8 468.8C589.8 476 590.1 486.8 587.8 494.8C585.4 502.7 579.8 510.5 578.8 516.3C577.7 522 581.1 524.9 581.5 529.3C581.9 533.6 581.6 538.6 581 542.3C580.4 545.9 579 548.9 577.8 551C576.5 553.1 577.1 553.5 573.5 555C569.9 556.5 562.8 559 556.3 559.8C549.7 560.5 545.4 561.9 534.3 559.8C523.1 557.6 501.8 550.8 489.5 546.8C477.2 542.7 467.3 537.8 460.3 535.5C453.2 533.2 454.8 532.6 447.3 532.8C439.7 532.9 422.3 535 414.8 536.5C407.2 538 405 540.3 402 542C399 543.7 397.6 545.3 396.5 546.8C395.4 548.3 394.3 548.1 395.3 551C396.2 553.9 398.7 559 402 564C405.3 569 411 576.2 415.3 581.3C419.5 586.3 423.3 590.8 427.5 594.3C431.8 597.8 437.9 600.1 440.8 602.3C443.6 604.4 443.9 605 444.8 607.3C445.6 609.5 446.1 611.4 445.8 615.8C445.4 620.1 444.1 629.1 442.8 633.3C441.4 637.4 440 638 437.5 640.5C435 643 431.5 646.3 427.8 648.5C424 650.8 418 653 414.8 654C411.5 655 412 654.9 408.3 654.5C404.5 654.1 397.1 653 392.3 651.8C387.4 650.5 383 647.7 379.3 646.8C375.5 645.8 373.3 647.3 369.5 646C365.7 644.7 361.3 643.1 356.5 638.8C351.7 634.4 344.8 624.1 340.5 620C336.2 615.9 334 615.4 330.8 614C327.5 612.6 326.2 611.2 321 611.5C315.8 611.8 305.7 609.3 299.5 615.8C293.3 622.3 287.2 644.1 283.8 650.5C280.3 656.9 280.8 653.3 279 654C277.2 654.7 274 654.6 273 654.8"/>
<path d="M-20 1040.8C-19.3 1039.8 -17.5 1036.1 -15.7 1034.8C-14 1033.4 -13 1031.9 -9.2 1032.8C-5.5 1033.6 1.1 1037.9 7 1039.8C12.9 1041.6 22.8 1043.3 26 1044"/>
<path d="M45 1044C47.3 1043.5 54.9 1042.2 58.8 1040.8C62.6 1039.3 65.8 1036.9 68 1035.3C70.2 1033.6 70.9 1033.2 71.8 1031C72.6 1028.8 73 1024.4 73 1022.3C73 1020.1 73.7 1020.9 72 1018C70.3 1015.1 68 1010.8 62.8 1005C57.5 999.3 46 989.3 40.8 983.5C35.5 977.8 33.1 974.1 31.3 970.5C29.4 966.9 29.8 965.4 29.8 961.8C29.7 958.1 29.7 954.5 31 948.8C32.3 943 33 934.5 37.5 927.3C42 920 50.7 914.8 58 905.5C65.3 896.3 77.3 878.2 81.5 871.8C85.7 865.3 83.3 869.8 83.3 866.8C83.3 863.8 82.3 857.2 81.5 853.8C80.7 850.3 80 848.4 78.3 846.3C76.5 844.1 75.6 842.8 71.3 840.8C66.9 838.7 57.5 835.2 52.3 833.8C47 832.3 44.9 832 39.5 832.3C34.1 832.5 27.6 832.3 20 835C12.4 837.7 0.7 845.3 -6 848.3C-12.7 851.2 -17.7 851.8 -20 852.5"/>
<path d="M-20 693.5C-18.7 692.7 -15.8 690.2 -12.5 688.8C-9.2 687.3 -5.4 685.3 0 685C5.4 684.8 14 687.2 20 687.3C26 687.3 32 685.3 36.3 685.5C40.5 685.7 43.3 687.1 45.8 688.5C48.2 689.9 46.1 686.4 50.8 693.8C55.4 701.1 65.7 721.7 73.5 732.8C81.3 743.8 92.1 754.2 97.8 760C103.4 765.8 104 765.6 107.3 767.5C110.5 769.4 114.3 770.6 117 771.3C119.7 771.9 119.6 772.2 123.5 771.5C127.4 770.8 133.8 771.7 140.3 767.3C146.7 762.8 155.9 750.1 162.3 745C168.6 739.9 173.6 738 178.5 736.5C183.4 735 182.3 735.3 191.5 736.3C200.7 737.3 225.4 741 233.5 742.5C241.6 744 238.4 744 240 745.3C241.6 746.5 241.6 746.8 243.3 749.8C244.9 752.7 248.8 760.1 249.8 763C250.7 765.9 254.7 766.4 248.8 767.3C242.8 768.1 221.6 767.7 214.3 768.3C206.9 768.8 208.3 769.2 204.5 770.5C200.7 771.8 195.4 773.9 191.5 776.3C187.6 778.6 185.3 779.6 181 784.5C176.7 789.4 168.6 798.3 165.5 805.5C162.4 812.7 160.5 820.9 162.3 827.5C164 834.1 171.7 840.6 176.3 845C180.8 849.4 183.2 851.1 189.5 853.8C195.8 856.4 202.6 858.3 214.3 860.8C225.9 863.2 250.9 866.4 259.5 868.5C268.1 870.6 262.2 869.4 266 873.5C269.8 877.6 278.9 888.4 282.3 893C285.6 897.6 285 897 286.3 901.3C287.5 905.5 290.4 912 289.8 918.5C289.1 925 284 935.7 282.3 940C280.5 944.3 283.9 941.9 279 944.5C274.1 947.1 259.6 951.9 253 955.5C246.4 959.1 241.8 963.5 239.3 966C236.7 968.5 237.8 969 237.8 970.5C237.7 972 237 972 239 974.8C241 977.5 246.9 982.9 249.8 987.3C252.6 991.6 255.1 997.8 256.3 1000.8C257.4 1003.7 257.2 1003.6 256.8 1005C256.3 1006.4 256.8 1007.4 253.5 1009.3C250.2 1011.1 243.8 1014.4 236.8 1016.3C229.7 1018.1 218.5 1017.8 211 1020.5C203.5 1023.3 196.5 1028.8 191.5 1032.8C186.5 1036.7 182.8 1042.1 181 1044"/>
<path d="M969.3 633.3C968 633.7 963.5 635.7 961.8 636C960 636.3 961.2 636.3 958.5 635.3C955.8 634.3 949.5 632 945.8 630C942 628 938.1 625.1 936 623.5C933.9 621.9 933.4 623 933.3 620.3C933.1 617.5 935 610.9 935 607.3C935 603.6 935.5 601.5 933.5 598.5C931.5 595.5 926.5 595 923 589.3C919.5 583.5 916.5 570.3 912.8 564C909 557.7 903.9 555.6 900.3 551.3C896.6 546.9 897.5 544.9 891 538C884.5 531.1 867.5 515.3 861.5 510C855.5 504.7 857.2 507.1 855 506.3C852.8 505.4 851.2 504.8 848.5 504.8C845.8 504.7 843.6 504 838.8 505.8C833.9 507.5 823.5 512.8 819.5 515.3C815.5 517.8 817.8 515.5 814.8 520.8C811.7 526 804.9 540.3 801 546.8C797.1 553.3 793.6 556 791.3 559.8C788.9 563.5 788.3 567.3 787 569.3C785.8 571.3 787.5 572.5 783.8 571.8C780 571 772 570.3 764.5 564.5C757 558.7 743.9 543.6 738.5 537C733.1 530.4 735 528.7 732.3 525C729.5 521.3 725.8 522 722.3 514.8C718.8 507.5 713 489.4 711.3 481.8C709.5 474.1 714.3 472.4 711.5 468.8C708.7 465.1 700.5 465.3 694.3 460C688 454.7 678.6 444 673.8 436.8C668.9 429.5 666.8 423 665.3 416.8C663.7 410.5 661.1 406.7 664.3 399.5C667.4 392.3 676 386.1 684 373.5C692 360.9 706.7 332.9 712.5 324C718.3 315.1 715.8 319.7 719 320C722.3 320.3 727.9 322.6 732 325.8C736.1 328.9 739.2 334.8 743.5 339C747.8 343.2 754.9 346.4 758 350.8C761.1 355.1 761.8 360.5 762 365C762.3 369.5 764.3 364.1 759.5 377.8C754.7 391.4 737.6 433.3 733 447C728.4 460.7 730.3 454.9 732 460C733.8 465.1 738.1 471 743.5 477.5C748.9 484 759.9 494.6 764.5 499C769.1 503.4 768.3 502.7 771 503.8C773.7 504.8 776.8 505.6 780.5 505.3C784.3 504.9 790 503.5 793.5 501.8C797 500 799.6 506 801.3 494.8C802.9 483.5 800.8 447.3 803.3 434.3C805.8 421.2 813 419.3 816.3 416.5C819.5 413.7 820.6 416.3 822.8 417.5C824.9 418.7 826.6 421.7 829.3 423.5C831.9 425.3 834.5 427 838.8 428.3C843 429.5 850.1 431 855 431C859.9 431 864.8 429.4 868 428.5C871.3 427.6 871.3 427.8 874.5 425.5C877.8 423.3 883.8 417 887.5 415C891.3 413 893.3 412.6 897 413.3C900.8 413.9 906.3 417 910 419C913.7 421 916 422 919.3 425.5C922.5 429 926.2 436.5 929.5 440.3C932.8 444 936.5 444.7 939.3 447.8C942 450.8 940.4 456.3 945.8 458.8C951.1 461.2 965 462.6 971.5 462.3C978 461.9 980.7 458.9 984.5 456.5C988.3 454.1 990.6 450 994.3 447.8C997.9 445.5 1001.3 450.1 1006.3 442.8C1011.2 435.4 1019.4 412.4 1024 403.8C1028.6 395.1 1030.4 394.1 1033.8 390.8C1037.1 387.4 1042.3 384.7 1044 383.5"/>
<path d="M1044 616.5C1042.7 617 1041.3 619.8 1036.3 619.8C1031.2 619.7 1020.2 616.7 1013.8 616.3C1007.3 615.8 1001.8 616.2 997.5 617.3C993.2 618.3 990.6 621.5 987.8 622.8C984.9 624 983.6 622.8 980.5 624.5C977.4 626.3 971.1 631.8 969.3 633.3"/>
<path d="M951 300C950.7 300.4 950.4 302 949 302.3C947.6 302.5 944.5 302.9 942.5 301.8C940.5 300.6 939.6 303.8 936.8 295.5C933.9 287.3 927.7 264.5 925.3 252.3C922.8 240 923.8 230.7 922.3 222C920.7 213.3 921.8 209.3 916 200.3C910.2 191.3 893.3 174 887.5 168C881.7 162 883.7 166.6 881 164C878.3 161.4 876.9 158 871.3 152.5C865.6 147 853.5 138 847 131C840.5 124 836.5 115.5 832.5 110.8C828.5 106 832 108.5 822.8 102.8C813.5 97 787.5 81.1 777.3 76C767 70.9 767.2 74.7 761.3 72C755.3 69.3 747.2 62.5 741.8 59.8C736.3 57 741.7 62.9 728.8 55.5C715.8 48.1 676.6 24.5 664 15.3C651.4 6 658.1 5.9 653.3 0C648.4 -5.9 637.8 -16.7 634.8 -20"/>
<path d="M735.8 -20C738.4 -16.3 746.7 -3.1 751.5 2.3C756.3 7.6 760.5 5.2 764.5 12.3C768.5 19.3 770.9 34.8 775.8 44.5C780.6 54.3 787.3 63.9 793.5 70.8C799.7 77.6 807.6 82.6 813 85.5C818.4 88.4 822.8 87.9 826 88C829.3 88.1 829.8 87.5 832.5 86.3C835.2 85 838.8 83.6 842 80.3C845.2 76.9 849 71.5 851.8 66C854.5 60.5 855.6 53 858.3 47.3C860.9 41.5 865.6 37 867.5 31.5C869.4 26 867.9 22.6 869.8 14C871.6 5.4 877.3 -14.3 878.8 -20"/>
<path d="M969.5 -20C971.3 -11.4 977.5 21.3 980 31.5C982.5 41.8 983.2 39.2 984.5 41.5C985.8 43.8 986.1 44.7 987.8 45.5C989.4 46.3 991.4 47.2 994.3 46.3C997.1 45.3 1001 42.8 1004.8 40C1008.5 37.2 1013.5 30.8 1016.8 29.5C1020 28.2 1021.7 30.3 1024 32C1026.3 33.8 1028.2 33.6 1030.5 40C1032.8 46.4 1037.1 61.8 1038 70.5C1038.9 79.2 1037 85.5 1035.8 92C1034.5 98.5 1032.2 105.3 1030.3 109.5C1028.3 113.8 1028.9 113.3 1024 117.5C1019.1 121.7 1005.7 130.3 1000.8 134.5C995.8 138.7 996 140.2 994.3 142.5C992.5 144.8 992.6 143 990.5 148.3C988.4 153.5 983.2 166.3 981.8 174.3C980.3 182.2 980.3 186.6 982 196C983.7 205.4 989.4 223.9 992 230.8C994.6 237.6 995 235.5 997.5 237C1000 238.5 1004.7 238.4 1007.3 239.5C1009.8 240.6 1012.2 242.3 1013 243.8C1013.8 245.2 1017.3 243.7 1012 248C1006.7 252.3 991.4 260.8 981.3 269.5C971.1 278.2 956 294.9 951 300"/>
<path d="M949.3 339C948.7 339.4 948.6 343.7 945.8 341.5C942.9 339.3 937 333.7 932 326C927 318.3 920.1 307 915.8 295.5C911.4 284 908.1 268.3 905.8 256.8C903.4 245.2 903.2 234.2 901.8 226.3C900.3 218.3 904.3 219 897 209C889.8 199 867.3 175.6 858.3 166.3C849.3 156.9 850.5 161.3 843 152.8C835.5 144.3 821.6 123.9 813 115.3C804.4 106.6 801.8 106 791.5 100.8C781.3 95.5 765.2 89.9 751.5 83.5C737.8 77.1 721.4 67.6 709.5 62.3C697.6 56.9 687.8 53.9 680.3 51.5C672.7 49.1 669.9 49.9 664 48C658.1 46.1 653.5 45.7 644.8 40C636 34.3 618.8 20.7 611.3 14C603.7 7.3 603 5.7 599.3 0C595.5 -5.7 590.5 -16.7 588.8 -20"/>
<path d="M746.5 -20C750.4 -15.7 764 -3.8 769.8 5.5C775.5 14.8 778.1 29.1 781 35.8C783.9 42.4 783.3 41.5 787 45.3C790.7 49 797.8 55.2 803.3 58.3C808.7 61.3 816 62.9 819.5 63.5C823 64.1 822.3 63.5 824 61.8C825.7 60 828.1 56.6 829.5 53C830.9 49.4 830.3 45.8 832.3 40C834.2 34.3 839.3 25.2 841 18.5C842.7 11.8 841.1 6.4 842.5 0C843.9 -6.4 848.1 -16.7 849.3 -20"/>
<path d="M978.3 -20C978.8 -16 980.2 -1.9 981.3 4C982.3 9.9 983.4 12.6 984.5 15.3C985.6 17.9 985.6 18.5 987.8 19.8C989.9 21 992.1 22.7 997.5 22.5C1002.9 22.3 1015.2 18.8 1020 18.8C1024.8 18.8 1024.3 21.8 1026.5 22.5C1028.7 23.2 1031.4 22.1 1033 23C1034.6 23.9 1034.4 18.7 1036.3 27.8C1038.1 36.8 1042.7 69 1044 77.3"/>
<path d="M1044 93.8C1043.6 96.4 1042.8 105.5 1041.8 109.5C1040.8 113.5 1044.2 112.3 1038 118C1031.8 123.8 1010.9 136.8 1004.8 144C998.6 151.2 1003 156.3 1001.3 161.3C999.5 166.2 995.9 169.4 994.3 173.8C992.6 178.1 991.8 183.5 991.5 187.3C991.2 191 990.5 189.5 992.5 196C994.5 202.5 998.7 220 1003.3 226.3C1007.8 232.5 1013.2 233.3 1020 233.8C1026.8 234.2 1040 229.6 1044 228.8"/>
<path d="M1044 247.8C1030.8 256.4 980.8 284.5 965 299.8C949.2 315 951.9 332.5 949.3 339"/>
<path d="M968.5 624.5C966.8 624.2 960.6 623.2 958.5 622.5C956.4 621.8 955.5 625 956 620.3C956.5 615.5 960.9 600.8 961.5 594.3C962.1 587.8 960.5 584.1 959.8 581.3C959 578.4 959.9 579.2 956.8 577C953.6 574.8 945.8 573.3 940.8 568.3C935.7 563.2 930 551.2 926.5 546.8C923 542.3 923.6 546.5 919.8 541.5C915.9 536.5 908.9 522.8 903.5 516.8C898.1 510.8 894.1 509.2 887.5 505.5C880.9 501.8 868.5 497.3 863.8 494.8C859 492.3 860 493.4 859 490.5C858 487.6 856.8 484.8 857.8 477.5C858.7 470.3 862.6 452.8 864.5 447C866.4 441.2 865.7 444.2 869 442.8C872.3 441.3 879.6 440.5 884.3 438.3C888.9 436 893.8 431 897 429.5C900.2 428 900.8 428.3 903.5 429.3C906.2 430.2 909.5 431.5 913.3 435C917 438.5 922.5 446.5 926.3 450C930 453.5 933.3 453.3 935.5 455.8C937.8 458.2 937.5 461.8 939.8 464.5C942 467.2 946.4 469.2 949 472C951.6 474.8 953.1 479.7 955.3 481.3C957.4 482.8 959 482 961.8 481.5C964.5 481 968.8 479.9 971.5 478C974.2 476.1 973.7 474.1 978 470.3C982.3 466.4 992 458.6 997.5 454.8C1003 450.9 1006.3 453.3 1011.3 447C1016.2 440.7 1021.8 424.3 1027.3 416.8C1032.7 409.3 1041.2 404.5 1044 402"/>
<path d="M1044 595.3C1041.6 596.9 1036.4 603.3 1029.8 605C1023.1 606.7 1011.5 603.2 1004 605.3C996.5 607.3 990.4 614 984.5 617.3C978.6 620.5 971.2 623.3 968.5 624.5"/>
<path d="M983.8 538C982.3 538.1 977.9 539.3 974.8 538.5C971.6 537.8 967.7 535.5 965 533.5C962.3 531.5 960.6 530.3 958.5 526.8C956.4 523.3 955 516.4 952.3 512.5C949.5 508.6 943.6 505.5 942 503.5C940.4 501.5 938.7 500.6 942.5 500.3C946.3 499.9 958 502.5 965 501.3C972 500 979.1 496.7 984.5 492.5C989.9 488.3 994.3 479.3 997.5 476C1000.8 472.7 999.1 476.6 1004 472.5C1008.9 468.4 1021.6 457.7 1027 451.5C1032.4 445.3 1033.4 439.3 1036.3 435.5C1039.1 431.8 1042.7 430.1 1044 429"/>
<path d="M1044 472C1041.2 473.6 1035.3 475.7 1027 481.8C1018.7 487.8 1000.8 502.1 994.3 508.5C987.7 514.9 989.5 515.1 987.8 520C986 524.9 984.4 535 983.8 538"/>
<path d="M-20 560C-16 560.3 -1.8 560.8 3.8 561.8C9.3 562.8 11.3 565.4 13.5 566C15.7 566.6 15.6 566.5 16.8 565.5C17.9 564.5 19.7 561.5 20.3 559.8C20.8 558 20.8 557.4 20 555.3C19.3 553.1 20 552.5 15.8 546.8C11.5 541 -1 528.7 -5.2 520.8C-9.5 512.8 -7.5 507.1 -10 499C-12.5 490.9 -18.3 476.7 -20 472.3"/>
<path d="M-20 249.8C-18.7 247.3 -15.6 239.8 -12.2 235C-8.9 230.3 -4.3 224.8 0 221.3C4.3 217.7 10.2 214.8 13.5 213.5C16.8 212.2 10.8 205.8 20 213.5C29.2 221.2 58.3 250.5 68.5 259.5C78.8 268.5 75.6 265.2 81.5 267.8C87.4 270.3 98.6 272.5 104 274.8C109.4 277 110 278.1 113.8 281.3C117.5 284.4 122.9 291.4 126.8 293.8C130.6 296.1 134.6 295.9 136.8 295.5C138.9 295.1 139.7 293.4 139.5 291.3C139.3 289.1 136.3 286.8 135.5 282.5C134.7 278.2 135.4 271 134.8 265.3C134.1 259.5 136.3 261.7 131.5 248C126.7 234.3 111 198.9 106 183C101 167.1 101.8 161.4 101.5 152.8C101.2 144.1 102.2 139 104.3 131C106.3 123 110.8 112 114 105C117.2 98 121.2 92.3 123.5 88.8C125.8 85.2 124.9 85.8 127.8 83.5C130.6 81.2 135.5 80.2 140.8 74.8C146 69.3 153.9 58 159.3 50.8C164.6 43.5 169 38.3 173 31.5C177 24.7 178.1 18.3 183.3 9.8C188.4 1.2 200.5 -15 204 -20"/>
<path d="M408.8 -20C409.8 -18 413.7 -11.8 415.3 -7.7C416.8 -3.7 415.8 -1.5 418 4.3C420.2 10 425.3 17.3 428.5 27C431.8 36.8 435.5 56.3 437.5 62.8C439.5 69.2 438.7 65.2 440.8 65.8C442.8 66.3 446.2 64.6 450 66C453.8 67.4 459.1 72.2 463.5 74C467.9 75.8 469.6 73.3 476.3 77C482.9 80.8 493.2 91.8 503.5 96.5C513.8 101.2 529.6 102 538 105C546.4 108 544.9 111.2 554 114.5C563.1 117.8 580.3 119.9 592.8 125C605.2 130.1 621 142.5 628.5 145C636 147.5 635.8 141.4 637.5 139.8C639.2 138.1 638.6 136.7 638.5 135.3C638.4 133.8 640 134.6 637 131C634 127.4 626.8 119.3 620.5 113.8C614.2 108.2 608.3 107.1 599.3 97.8C590.2 88.4 573.2 67.1 566 57.5C558.8 47.9 559 47.3 556.3 40C553.5 32.8 553.1 24 549.8 14C546.4 4 538.5 -14.3 536.3 -20"/>
<path d="M1044 685C1042.2 684.5 1037 681.9 1033 682C1029 682.1 1025.4 684.6 1020 685.5C1014.6 686.4 1006.1 687.5 1000.8 687.5C995.4 687.5 992.1 685.5 987.8 685.3C983.4 685 980.2 687.2 974.8 686.3C969.3 685.3 964.4 681.7 955.3 679.5C946.1 677.3 931.6 674 919.8 673C907.9 672 896.7 673.8 884.3 673.5C871.8 673.3 854.4 671.7 845.3 671.5C836.1 671.3 834.9 671 829.3 672.5C823.6 674 814.8 678.7 811.5 680.8C808.3 682.8 807.3 682.1 809.8 685C812.2 687.9 823.3 694.4 826.3 698C829.3 701.6 826.6 703.9 827.8 706.8C828.9 709.6 828.5 710.3 833 715.3C837.5 720.2 847.5 731.4 855 736.3C862.5 741.1 868.6 742.8 877.8 744.5C886.9 746.3 902.5 745.8 910 746.8C917.5 747.7 916.5 747.8 923 750C929.5 752.2 940.6 756.2 949 759.8C957.4 763.3 968 768.8 973.3 771.5C978.5 774.2 978.9 774.5 980.5 776C982.1 777.5 983.7 779.7 982.8 780.3C981.8 780.8 976.5 778.8 974.8 779.5C973 780.2 972.2 781.5 972 784.5C971.8 787.5 973.7 793.9 973.5 797.5C973.3 801.1 973.8 802.9 970.8 806.3C967.7 809.6 960.5 814.5 955.3 817.5C950 820.5 945.7 823.5 939.3 824.3C932.8 825 923 822.2 916.5 822C910 821.8 907.8 822 900.3 823C892.7 824 881.5 825.7 871.3 828.3C861 830.8 846.3 836.7 838.8 838.5C831.2 840.3 835.2 839.6 826 839.3C816.8 838.9 793.2 838 783.5 836.5C773.8 835 774.2 833.5 767.8 830.3C761.3 827 753.7 820.5 745 817.3C736.3 814 724.4 813.3 715.8 810.8C707.1 808.2 701.6 806.8 693 801.8C684.4 796.7 671 785.1 664 780.5C657 775.9 656.9 778 651 774.3C645.1 770.5 633.9 761.6 628.5 758.3C623.1 754.9 623.6 757 618.8 754C613.9 751 609 746.1 599.3 740C589.5 733.9 571.3 726 560.5 717.5C549.7 709 539.6 694.9 534.5 688.8C529.4 682.6 531.4 684.3 530 680.8C528.6 677.3 528.2 671.3 526.3 667.8C524.3 664.3 520.9 661.1 518.5 659.8C516.1 658.4 515.3 658.6 512 659.5C508.8 660.4 502.8 664.3 499 665.3C495.2 666.2 493.6 662.4 489.3 665.3C484.9 668.1 481.6 678 473 682.3C464.4 686.5 448.8 686.8 437.5 690.5C426.2 694.3 415 701.6 405.3 704.8C395.5 707.9 385.8 707.5 379.3 709.3C372.8 711 370 715.2 366.3 715.3C362.5 715.3 359.2 710.3 356.5 709.5C353.8 708.7 351.6 709.3 350 710.3C348.4 711.2 346.6 713 346.8 715.3C346.9 717.5 347.2 720.4 351 724C354.8 727.6 365.3 733.1 369.5 736.8C373.7 740.4 374.3 737.8 376.3 745.8C378.2 753.7 380.5 775.2 381 784.5C381.5 793.8 379.2 798.1 379.3 801.8C379.3 805.4 378 802.6 381.5 806.3C385 809.9 395.7 817.8 400 823.5C404.3 829.3 403.3 835.7 407.5 840.8C411.7 845.8 421.7 850.2 425 853.8C428.3 857.3 427.3 860.1 427.3 862.3C427.2 864.4 426 865.3 424.5 866.5C423 867.7 419.7 868 418 869.5C416.3 871 415.8 864.2 414.3 875.3C412.7 886.3 410.9 923.5 408.5 935.8C406.1 948 408.1 930.7 400 948.8C391.9 966.8 366.7 1028.1 360 1044"/>
<path d="M970.3 641.8C969.4 642 969.1 643.7 965 643.5C960.9 643.3 950 640.8 945.8 640.5C941.5 640.2 942 641.7 939.3 641.5C936.5 641.3 933.3 640.9 929.5 639.5C925.8 638.1 919.8 635.8 916.8 633.3C913.8 630.8 912.2 628.1 911.5 624.5C910.8 620.9 914.8 615.8 912.8 611.5C910.7 607.2 902.2 603.5 899 598.5C895.8 593.5 895.5 585.3 893.8 581.8C892 578.2 889.8 578.9 888.3 577C886.7 575.1 887.6 573.7 884.3 570.3C880.9 566.8 873.4 562.7 868 556.5C862.6 550.3 856.1 537.9 851.8 533C847.4 528.1 845.2 528.1 842 527C838.8 525.9 835.2 526.3 832.5 526.5C829.8 526.7 829.3 525.7 826 528.3C822.8 530.8 815.9 538.2 813 542C810.1 545.8 811.2 547 808.5 551C805.8 555 799.3 560.7 796.8 565.8C794.3 570.8 794.6 577.7 793.5 581.3C792.4 584.8 791.9 585.9 790.3 587.3C788.6 588.6 786.5 589.2 783.8 589.3C781 589.3 779.4 590.1 774 587.8C768.6 585.4 759.6 581.9 751.5 575C743.4 568.1 731.7 554.8 725.5 546.5C719.3 538.2 718.2 533.6 714.5 525C710.8 516.4 706.2 501.3 703.3 494.8C700.3 488.3 698.3 488.9 696.8 486C695.3 483.1 697.5 481.7 694.3 477.5C691 473.3 681.5 464.4 677 460.8C672.5 457.1 670.5 458.8 667 455.8C663.5 452.8 660.1 450.7 655.8 442.8C651.4 434.8 643.4 415 641 408.3C638.6 401.5 640.9 404.9 641.5 402.5C642.1 400.1 640.1 400 644.8 393.8C649.4 387.5 662.9 374.9 669.5 365C676.1 355.1 678.2 346.1 684.5 334.5C690.8 322.9 702.8 303 707.5 295.5C712.2 288 711.1 290.5 712.5 289.3C713.9 288 714.1 287.8 715.8 288C717.4 288.2 713.8 283.5 722.3 290.5C730.7 297.5 756.5 320 766.3 330.3C776 340.5 775.4 344.9 781 352C786.6 359.1 792 366.8 800 373C808 379.2 821.2 383.8 829.3 389C837.3 394.3 838.3 403.3 848.5 404.5C858.8 405.7 880.5 397.3 890.8 396.3C901 395.2 901.9 396.4 910 398.3C918.1 400.1 932.8 405.8 939.3 407.5C945.8 409.2 943.1 408.7 949 408.5C954.9 408.3 965.6 407.8 974.8 406.5C983.9 405.2 995.8 404.3 1004 400.5C1012.2 396.8 1017.3 388.8 1024 384C1030.7 379.2 1040.7 373.6 1044 371.5"/>
<path d="M1044 631.5C1040.7 631.3 1029 630.1 1024 630.5C1019 630.9 1018.7 633.8 1013.8 633.8C1008.8 633.8 999.1 630.9 994.3 630.5C989.4 630.1 987.2 630.9 984.5 631.5C981.8 632.1 980.4 632.5 978 634.3C975.6 636 971.5 640.5 970.3 641.8"/>
<path d="M1002 598.5C1000.2 599.2 993.2 602.5 991 602.5C988.8 602.5 989.1 602 988.8 598.5C988.4 595 989.5 586 988.8 581.3C988 576.5 990.9 576 984.5 570.3C978.1 564.5 961.4 558.6 950.3 546.8C939.1 534.9 924.8 507.8 917.5 499C910.3 490.2 910.2 495.2 906.8 494C903.3 492.8 899.7 493.4 897 492C894.3 490.6 892.9 487 890.8 485.8C888.6 484.5 885.6 484.9 884.3 484.3C882.9 483.6 882 486.5 882.5 481.8C883 477 886 460.8 887.5 455.8C889 450.7 888.5 453.2 891.8 451.5C895 449.8 901 443.8 906.8 445.8C912.5 447.8 921.9 459.9 926.3 463.5C930.6 467.1 928.4 462.8 932.8 467.3C937.1 471.7 946.9 486.3 952.3 490.3C957.6 494.2 961.1 491.7 965 491C968.9 490.3 973 487.5 975.5 486C978 484.5 978.5 483.9 980 481.8C981.5 479.6 979 478 984.8 473C990.5 468 1007.8 458 1014.8 451.5C1021.7 445 1023.7 439.3 1026.5 434.3C1029.3 429.2 1028.8 425.1 1031.8 421.3C1034.7 417.4 1042 412.7 1044 411"/>
<path d="M1044 497.5C1042.7 498.3 1042 497.4 1036.3 502C1030.5 506.6 1014.9 519.7 1009.5 525C1004.1 530.3 1004.1 528 1004 533.8C1003.9 539.5 1005.2 551.1 1008.8 559.8C1012.3 568.4 1022.8 580.5 1025.5 585.5C1028.2 590.5 1025.6 588.5 1025 590C1024.4 591.5 1023.1 593.1 1021.8 594.3C1020.4 595.4 1020 596 1016.8 596.8C1013.5 597.5 1004.5 598.2 1002 598.5"/>
<path d="M-20 214.3C-17.7 212.7 -13.2 210.2 -6.5 204.8C0.2 199.3 14.5 185.6 20 181.5C25.5 177.4 24.3 180.1 26.5 180C28.7 179.9 29.8 179.7 33 181C36.2 182.3 39.8 183 45.8 187.8C51.7 192.5 64.2 205.4 68.5 209.3C72.8 213.1 70.9 211 71.8 211C72.6 211 73.8 212.2 73.5 209C73.2 205.8 70.3 196.1 69.8 191.8C69.3 187.4 69.3 190.3 70.5 183C71.7 175.8 73.5 160.5 76.8 148.3C80 136 84.8 120.3 89.8 109.5C94.7 98.7 101.5 90 106.5 83.5C111.5 77 114.2 77.8 120 70.5C125.8 63.3 134.6 48.7 141.3 40C147.9 31.3 153.9 28.5 160 18.5C166.1 8.5 174.8 -13.6 177.8 -20"/>
<path d="M443.8 -20C446 -18.2 453.3 -11.5 457 -9.5C460.7 -7.5 462.7 -11 465.8 -7.7C468.8 -4.5 472.7 5.6 475.5 9.8C478.3 13.9 480.5 15.3 482.8 17C485 18.8 486.5 20.1 489.3 20.3C492 20.4 496.3 18.2 499 18C501.7 17.8 503.3 20.1 505.5 19C507.7 17.9 510.9 14.4 512 11.3C513.1 8.1 512.8 5.2 512.3 0C511.7 -5.2 509.3 -16.7 508.8 -20"/>
<path d="M1044 704C1042.2 703.9 1037 703.2 1033 703.5C1029 703.8 1028.6 703 1020 706C1011.4 709 991 719.5 981.3 721.8C971.5 724 966.6 720.3 961.8 719.3C956.9 718.2 957.1 716.2 952.3 715.3C947.4 714.3 937.3 713.5 932.8 713.5C928.3 713.5 927.3 714.2 925.3 715.3C923.2 716.3 920.8 718.3 920.3 719.8C919.7 721.2 919.4 721.8 922 724C924.6 726.2 932 731.2 936 732.8C940 734.3 942.5 733.5 945.8 733.3C949 733 951.5 730.3 955.3 731C959 731.8 963.9 736.8 968.3 737.8C972.6 738.7 978 736.5 981.3 736.5C984.5 736.5 985.6 735.8 987.8 738C989.9 740.3 991.3 745.9 994 750C996.7 754.1 1001.9 758.9 1004 762.5C1006.1 766.1 1006.5 767.8 1006.5 771.5C1006.5 775.2 1008 776.7 1003.8 784.5C999.5 792.3 989.3 810.5 981.3 818.3C973.2 826 962.3 827.3 955.3 831.3C948.3 835.2 945.7 840.1 939.3 841.8C932.8 843.4 922.5 841.8 916.5 841C910.5 840.2 908.9 837.9 903.5 837C898.1 836.1 890.2 835.5 884.3 835.5C878.3 835.5 876.1 835.3 868 837C859.9 838.8 846.8 844.5 835.5 846C824.2 847.5 807.5 846.5 800 846.3C792.5 846 793.5 844.5 790.3 844.5C787 844.5 786.4 846.9 780.5 846.3C774.6 845.6 761.8 843.1 754.8 840.8C747.7 838.4 747.2 835.4 738 832C728.8 828.6 718 826.9 699.8 820.5C681.5 814.1 648.5 800.4 628.5 793.5C608.5 786.6 594 782.4 580 779.3C566 776.1 554.5 776.5 544.3 774.5C534 772.5 524.1 768.9 518.5 767C512.9 765.1 515.4 767 510.5 763C505.6 759 496 748.7 489.3 743.3C482.5 737.8 474.6 733.1 469.8 730.3C464.9 727.4 464.5 727.4 460.3 726C456 724.6 448.3 722.3 444 721.8C439.7 721.2 439.1 721.5 434.3 722.8C429.4 724 419.5 726.9 414.8 729.3C410 731.6 408.5 732.8 405.8 737C403 741.2 399.5 748.5 398.5 754.3C397.5 760 398.4 765.8 400 771.5C401.6 777.3 405.3 784.5 408.3 788.8C411.3 793 411 793.1 418 797.3C425 801.4 442.4 810 450.5 813.5C458.6 817 461.7 817.3 466.5 818.5C471.3 819.7 476.3 820.5 479.5 820.8C482.8 821 479.5 818.9 486 820C492.5 821.1 512 824.7 518.5 827.3C525 829.8 522.3 833.4 525 835.5C527.7 837.6 532.5 838.4 534.5 840C536.5 841.6 536.8 843.4 537.3 845C537.7 846.6 538.6 846.6 537.3 849.5C535.9 852.4 530.5 858.5 529 862.3C527.5 866 528.7 869.9 528 871.8C527.3 873.6 526.6 874.3 525 873.3C523.4 872.2 520.1 866.8 518.5 865.3C516.9 863.8 516.9 863.7 515.3 864.3C513.6 864.8 510 864.8 508.8 868.8C507.5 872.8 508.7 883.5 508 888.3C507.3 893 509.4 890.5 504.5 897C499.6 903.5 485.8 917.9 478.8 927.3C471.7 936.6 467 945.1 462.3 953.3C457.5 961.4 456.3 967.6 450.5 976.3C444.8 984.9 432.1 999.1 427.8 1005C423.4 1010.9 425.7 1007.2 424.5 1011.5C423.3 1015.8 422.4 1025.6 420.5 1031C418.6 1036.4 414.5 1041.8 413.3 1044"/>
<path d="M-20 987.8C-19.2 987 -16.3 985 -15.5 983.5C-14.7 982 -14.5 986.2 -15.2 979C-16 971.8 -19.2 946.9 -20 940.5"/>
<path d="M-20 619.8C-13.3 623.3 8 635.8 20 641.3C32 646.7 44.7 650 52.3 652.3C59.8 654.5 61.5 654.4 65.3 654.8C69 655.1 72.8 654.8 75 654.5C77.2 654.3 76.1 655.2 78.3 653.3C80.4 651.3 85.3 644.8 88 643C90.7 641.2 91.8 641.7 94.5 642.3C97.2 642.8 100.8 645.7 104 646.5C107.2 647.3 109.4 646 113.8 647.3C118.1 648.5 125.1 650.8 130 654.3C134.9 657.8 139.2 665.1 143 668.3C146.8 671.4 148.5 672.6 152.8 673.3C157 673.9 162.8 672.9 168.8 672C174.7 671.1 184.8 669.2 188.3 667.8C191.7 666.3 190.3 665.7 189.5 663.5C188.8 661.3 187.2 658 183.8 654.8C180.3 651.5 173.4 648.6 168.8 644.3C164.1 639.9 164.9 635.6 155.8 628.8C146.6 621.9 123.5 610.2 113.8 603C104 595.8 104.9 592.7 97.3 585.5C89.6 578.3 74.4 565.8 68 559.8C61.6 553.8 65.7 558.9 58.8 549.5C51.8 540.1 32.4 513.3 26.5 503.5C20.6 493.7 22.5 494.8 23.3 490.5C24 486.2 32.8 486.9 31 477.5C29.2 468.1 18 448.7 12.5 434.3C7 419.8 1 402.3 -2.2 390.8C-5.5 379.2 -5.9 378.7 -7 365C-8.1 351.3 -9.2 323 -9 308.5C-8.7 294 -8.4 286.9 -5.5 278.3C-2.6 269.6 5.1 261.3 8.3 256.8C11.4 252.2 11.5 252.1 13.5 251C15.5 249.9 17.3 248.8 20 250C22.7 251.2 26 253.6 29.8 258.3C33.5 262.9 35 268.3 42.5 278C50 287.8 68.5 309.8 75 316.8C81.5 323.7 77.2 318.7 81.5 319.8C85.8 320.8 95.9 321.9 100.8 323.3C105.6 324.6 102.4 323 110.5 328C118.6 333 136 344 149.5 353.5C163 363 183.7 380 191.5 384.8C199.3 389.5 192 389.2 196.3 382.3C200.5 375.3 214.3 353.6 217.3 343.3C220.3 332.9 215.9 326.8 214.3 320.3C212.6 313.8 213.3 312.7 207.3 304.3C201.2 295.8 185.8 279.8 177.8 269.8C169.7 259.7 162.8 250.3 159 243.8C155.2 237.3 155.8 235.8 154.8 230.8C153.7 225.7 154.3 219.8 152.8 213.3C151.3 206.8 149.6 199 145.8 191.8C141.9 184.5 132.9 175.1 129.8 170C126.6 164.9 127.8 165.6 127 161.3C126.2 156.9 125.3 149.8 125 144C124.8 138.3 124.1 132.5 125.5 126.8C126.9 121 129.8 115 133.3 109.5C136.7 104 140.9 99 146.3 93.5C151.6 88 159 81.7 165.5 76.8C172 71.8 179.6 68.3 185 63.8C190.4 59.2 193.2 60.1 198 49.5C202.8 38.9 209.5 11.6 214 0C218.5 -11.6 223.4 -16.7 225.3 -20"/>
<path d="M393.8 -20C394.8 -18 398.3 -14.9 400 -7.7C401.7 -0.6 406.6 6.1 404 22.8C401.4 39.4 387.8 74 384.5 92C381.3 110 383.8 122.8 384.5 131C385.3 139.2 382.9 140.3 389 141C395.1 141.8 413.2 135.7 421.3 135.5C429.3 135.3 433.7 140 437.5 139.8C441.3 139.5 439.7 136.5 444 134C448.3 131.5 457.6 128.4 463.5 124.8C469.4 121.1 475.2 114.3 479.5 112C483.8 109.7 474.7 102.3 489.3 110.8C503.8 119.2 547.6 149 567 162.5C586.4 176 597.7 186.3 605.8 191.8C613.8 197.3 612.3 195.8 615.5 195.5C618.8 195.2 622 191.3 625.3 190C628.5 188.8 632.8 188 635 188C637.2 188 637.5 186.8 638.3 190.3C639 193.8 638.2 205 639.3 209C640.3 213 642.3 210.3 644.8 214C647.3 217.7 649.4 228.2 654.3 231C659.1 233.8 666.7 231.9 673.8 230.8C680.8 229.6 689 223.3 696.5 224C704 224.7 710.9 231.6 719 235C727.1 238.4 739 243.1 745 244.3C751 245.4 752 242 754.8 241.8C757.5 241.5 755.9 240.2 761.3 243C766.6 245.8 781.5 255 787 258.8C792.5 262.5 792.3 263.9 794.5 265.3C796.7 266.6 797.5 267.8 800 267C802.5 266.3 807.1 263.9 809.8 260.8C812.4 257.6 814.1 250.7 815.8 248C817.4 245.3 816.1 246.7 819.5 244.5C822.9 242.3 833.4 237.3 836.3 235C839.1 232.7 837.5 232.9 836.8 230.8C836 228.6 834.4 225.5 831.5 222C828.6 218.5 823.6 216 819.5 209.5C815.4 203 810.3 189.2 807 183C803.8 176.8 802.3 174.7 800 172.3C797.8 169.8 795.5 170.3 793.5 168.5C791.5 166.7 789.9 163.3 787.8 161.3C785.6 159.2 787.6 159.7 780.5 156C773.4 152.3 759 147.8 745 139.3C731 130.8 707.7 112.1 696.3 105C684.8 97.9 686.7 101.7 676.5 96.5C666.3 91.3 643.5 79 635 74C626.5 69 633.3 71.4 625.3 66.5C617.3 61.6 595.1 49.9 587 44.5C578.9 39.1 579.8 37.9 576.8 34.3C573.8 30.6 572.6 31.8 569 22.8C565.4 13.7 557.5 -12.9 555.3 -20"/>
<path d="M1015.3 -20C1018.8 -17.5 1031.5 -8.8 1036.3 -4.7C1041 -0.7 1042.7 2.8 1044 4.3"/>
<path d="M1044 141.5C1041.3 144.1 1031.2 152.3 1027.8 157C1024.3 161.8 1023.5 166.3 1023.3 170C1023 173.8 1024.7 175.9 1026.5 179.5C1028.3 183.1 1031.1 188.8 1034 191.8C1036.9 194.7 1042.3 196.1 1044 197"/>
<path d="M1044 666.3C1041.6 665.5 1033.8 661.8 1029.8 661.8C1025.8 661.7 1024.3 665 1020 665.8C1015.7 666.5 1009.9 666.5 1004 666.5C998.1 666.5 994.8 666.8 984.5 665.5C974.3 664.2 953.3 659.6 942.5 658.8C931.7 657.9 927.9 660.3 919.8 660.3C911.6 660.2 905.1 661 893.8 658.5C882.4 656 863 648.4 851.8 645.5C840.5 642.6 832.7 643 826 641C819.3 639 818.3 635.8 811.8 633.3C805.3 630.7 792.8 626.7 787 625.5C781.3 624.3 781.5 626.5 777.3 626.3C773 626 767.7 625.8 761.3 624.3C754.8 622.7 747.1 622.1 738.5 616.8C729.9 611.4 716.5 598.6 709.5 592.3C702.5 585.9 699.8 583 696.5 578.8C693.3 574.5 693.8 572.3 690 567C686.3 561.7 677.5 553.8 674 546.8C670.5 539.8 671 530.8 669.3 525C667.5 519.2 666.5 516.3 663.5 512C660.5 507.7 653.6 501.2 651 499C648.4 496.8 649.2 497.5 648 499C646.8 500.5 643.6 501.3 643.8 507.8C643.9 514.3 648.3 531.5 648.8 538C649.2 544.5 649.4 542.4 646.3 546.8C643.1 551.1 633.8 560.3 629.8 564C625.7 567.7 625.1 567.6 622 569C618.9 570.4 615.9 567.6 611 572.5C606.1 577.4 597.4 593.1 592.8 598.3C588.1 603.4 587.5 602 583.3 603.3C579 604.5 575.7 606 567 605.5C558.3 605 540.4 600.5 531.3 600.5C522.1 600.5 518.5 602.8 512 605.8C505.5 608.7 499 613.1 492.5 618.3C486 623.4 478.4 630.7 473 636.8C467.6 642.8 465.4 648.9 460 654.8C454.6 660.6 445.6 667.9 440.8 671.8C435.9 675.6 437.5 675.6 431 677.8C424.5 679.9 411.2 683.5 402 684.8C392.8 686 390 686.3 376 685.3C362 684.3 329.2 679.5 317.8 678.8C306.3 678 312.9 678.8 307.5 680.8C302.1 682.7 293.8 688.3 285.3 690.3C276.7 692.2 262.7 691.5 256.3 692.3C249.8 693 251.4 694.5 246.5 694.8C241.6 695 229.7 691.8 227 693.5C224.3 695.2 228.8 702.1 230.3 705C231.7 707.9 230.1 706.7 235.5 711C240.9 715.3 255 724.3 262.8 730.8C270.5 737.3 276.1 745.2 282 750C287.9 754.8 291.8 757.2 298.3 759.8C304.8 762.3 314 765.3 321 765.5C328 765.7 333 761.8 340.5 761C348 760.2 361.4 760.6 366.3 760.8C371.1 760.9 368.4 759.4 369.5 761.8C370.6 764.1 372.3 770.3 372.8 774.8C373.2 779.3 376.2 782.8 372 788.8C367.8 794.7 351.3 805.4 347.5 810.5C343.7 815.6 349.6 814.9 349.3 819.3C348.9 823.6 345.1 830.8 345.5 836.5C345.9 842.3 350.2 848.7 351.5 853.8C352.8 858.8 353.5 862.4 353.3 866.8C353 871.1 353.2 872.3 350 879.8C346.8 887.2 336.8 904.3 334 911.5C331.2 918.7 332.4 919 333.3 923C334.1 927 338.9 932.2 339 935.8C339.1 939.3 336.7 941.6 334 944.5C331.3 947.4 326.3 949 323 953.3C319.8 957.5 317.3 962.1 314.5 970C311.8 977.9 307.8 992.8 306.5 1000.8C305.2 1008.8 309.2 1010.8 306.8 1018C304.3 1025.2 294.3 1039.7 291.8 1044"/>
<path d="M712 1044C714.3 1043.3 710.8 1039.8 725.5 1039.5C740.2 1039.2 786.2 1041.3 800 1042C813.8 1042.8 807.1 1043.7 808.5 1044"/>
<path d="M120.8 1044C123.9 1041.5 134.4 1032.2 139.8 1029.3C145.1 1026.3 148.8 1026 152.8 1026.3C156.8 1026.5 161.5 1029.5 163.8 1031C166 1032.5 168.3 1033.1 166 1035.3C163.7 1037.4 152.7 1042.5 150 1044"/>
<path d="M-20 1013C-19.3 1012.7 -21.3 1011.8 -15.7 1011.3C-10.2 1010.8 7.8 1011 13.5 1010C19.2 1009 17.4 1008 18.3 1005C19.1 1002 20.3 998.5 18.8 992C17.3 985.5 10.7 973.7 9.3 966C7.8 958.3 9.4 952.2 10.3 945.8C11.1 939.3 11.8 935.4 14.3 927.3C16.7 919.1 23 904.2 24.8 897C26.5 889.8 22.8 887.6 24.8 884C26.7 880.4 34.6 877.4 36.5 875.3C38.4 873.1 37.1 872.3 36 871C34.9 869.7 33.5 867.2 29.8 867.3C26 867.3 17.3 871 13.5 871.3C9.7 871.5 9.3 869.3 7 869C4.8 868.7 4.5 868.3 0 869.5C-4.5 870.8 -16.7 875.3 -20 876.5"/>
<path d="M-20 645C-17.7 645.6 -12.7 645.4 -6 648.5C0.7 651.6 13 660.5 20 663.8C27 667 28.7 665.2 36.3 667.8C43.8 670.3 55 673.7 65.3 679C75.5 684.3 91.2 696.3 97.8 699.5C104.3 702.7 101.5 700.1 104.8 698C108 695.9 113.3 689 117 687C120.7 685 121.9 683.5 126.8 685.8C131.6 688 137.1 695.1 146.3 700.3C155.4 705.4 172 712.9 181.8 716.8C191.5 720.6 197 721.8 204.5 723.5C212 725.2 221.6 725.5 227 726.8C232.4 728 234 729.8 236.8 731.3C239.5 732.8 241.1 733.5 243.3 735.8C245.4 738 247 742.2 249.8 745C252.5 747.8 256.3 749.5 259.5 752.8C262.8 756 261.7 759.4 269.3 764.3C276.8 769.1 294.1 777.7 304.8 781.8C315.4 785.8 328.9 786.1 333.3 788.8C337.6 791.4 333 794.3 331 797.5C329 800.7 326.5 805.6 321 807.8C315.5 809.9 304.2 809 298.3 810.5C292.3 812 290.3 815.5 285.3 817C280.3 818.5 271.8 818.2 268.3 819.3C264.7 820.3 264.8 819.9 264 823.5C263.2 827.1 262.5 836.4 263.3 840.8C264 845.1 264.5 845.2 268.5 849.5C272.5 853.8 282.6 862.1 287 866.8C291.4 871.4 292.4 873.2 295 877.5C297.6 881.8 300.2 885.9 302.5 892.8C304.8 899.6 308 913.5 309 918.5C310 923.5 313.1 912.2 308.5 923C303.9 933.8 286.2 969.8 281.3 983.5C276.3 997.2 280.2 999.4 278.8 1005C277.3 1010.6 275.7 1013.5 272.5 1017.3C269.3 1021 268.7 1024.1 259.5 1027.8C250.3 1031.4 226 1036.5 217.5 1039.3C209 1042 209.8 1043.2 208.3 1044"/>
<path d="M665.5 1044C669.6 1039.9 684.3 1024.2 690 1019.3C695.7 1014.3 695.5 1015.5 699.8 1014.3C704 1013 706 1011.7 715.8 1012C725.5 1012.3 744 1015.8 758 1016.3C772 1016.7 789.2 1013.9 800 1014.5C810.8 1015.1 815.2 1018.8 822.8 1019.8C830.3 1020.7 838.8 1019.3 845.3 1020.3C851.7 1021.3 857.7 1025 861.5 1025.8C865.3 1026.5 864.4 1021.5 868 1024.5C871.6 1027.5 880.7 1040.8 883.3 1044"/>
<path d="M690.8 1044C693.3 1042.1 700.5 1035.2 706.3 1032.5C712 1029.8 715.8 1028.2 725.5 1028C735.2 1027.8 751.5 1031 764.5 1031.3C777.5 1031.5 793.5 1029.2 803.3 1029.3C813 1029.3 816.3 1031.2 822.8 1031.5C829.3 1031.8 837.4 1030.7 842.3 1031C847.1 1031.3 849 1031.1 851.8 1033.3C854.5 1035.4 857.6 1042.2 858.8 1044"/>
<path d="M592.5 1044C591.8 1039 588.8 1020.3 588.3 1013.8C587.7 1007.3 588.5 1007.2 589.3 1005C590 1002.8 590.8 1002 592.5 1000.8C594.2 999.5 589 998.5 599.3 997.3C609.5 996 620.8 991.8 654.3 993C687.7 994.2 767.6 1001.4 800 1004.5C832.4 1007.6 838.3 1009.7 848.5 1011.8C858.8 1013.8 857.7 1015.8 861.5 1016.8C865.3 1017.7 866.8 1014.2 871.3 1017.3C875.8 1020.3 884.8 1030.8 888.5 1035.3C892.3 1039.7 892.9 1042.5 893.8 1044"/>
<path d="M959.5 1044C966.9 1042.7 993.9 1037.3 1004 1036C1014.1 1034.7 1013.3 1037.2 1020 1036.3C1026.7 1035.3 1040 1031.3 1044 1030.3"/>
<path d="M541.3 1044C542.1 1039 545 1020.3 546.5 1013.8C548 1007.3 547.4 1008.8 550.3 1005C553.1 1001.2 558.8 994.6 563.8 991C568.7 987.4 575.7 985.1 580 983.5C584.3 981.9 583.6 981.8 589.5 981.5C595.4 981.2 600.9 982.3 615.5 981.8C630.1 981.2 659 977.7 677 978C695 978.3 706 982.1 723.3 983.5C740.5 984.9 757.5 983.3 780.5 986.5C803.5 989.7 846.4 999.2 861.5 1002.5C876.6 1005.8 868 1004.5 871.3 1006.5C874.5 1008.5 878.3 1012.7 881 1014.3C883.7 1015.8 884.8 1013.8 887.5 1015.8C890.2 1017.7 894.3 1023.8 897 1025.8C899.7 1027.8 900.8 1027.8 903.5 1027.8C906.2 1027.7 910.5 1026.4 913.3 1025.3C916 1024.1 914.9 1020.7 919.8 1021C924.6 1021.3 930.6 1027.9 942.5 1027C954.4 1026.1 979.1 1018.1 991 1015.8C1002.9 1013.4 1004.9 1015.1 1013.8 1013C1022.6 1010.9 1039 1004.9 1044 1003.3"/>
<path d="M-20 171.5C-16.7 168.3 -7.7 160.5 0 152.3C7.8 144 20.5 128.3 26.5 121.8C32.5 115.2 33.6 114.6 36.3 112.8C38.9 110.9 39.3 114 42.5 110.5C45.7 107 48.5 99.8 55.5 92C62.5 84.2 77.2 72 84.8 63.8C92.3 55.5 95.2 48.9 100.8 42.8C106.3 36.6 112.6 33.1 118 27C123.4 20.9 128.5 14.1 133.3 6.3C138 -1.6 144.5 -15.6 146.8 -20"/>
<path d="M1044 729C1042.2 728.7 1035.5 727.4 1033 727.3C1030.5 727.1 1028.1 725.2 1028.8 728.3C1029.4 731.3 1035.5 742.1 1036.8 745.8C1038 749.4 1037.7 744.8 1036.5 750C1035.3 755.2 1032 769.5 1029.8 776.8C1027.5 784 1028.7 785.5 1022.8 793.3C1016.8 801 1000.6 816.1 994.3 823.5C987.9 830.9 993.7 831.2 984.5 837.8C975.3 844.3 951.1 858.2 939.3 862.8C927.4 867.3 921.3 865.8 913.3 865.3C905.2 864.8 899.9 860.8 890.8 859.8C881.6 858.7 865.3 860 858.3 859C851.2 858 854.4 854.5 848.5 854C842.6 853.5 832.5 856.5 822.8 856.3C813 856 797.3 852.7 790.3 852.3C783.2 851.8 786.4 853.6 780.5 853.5C774.6 853.4 767.7 853.8 754.8 851.8C741.8 849.7 720.3 845.6 703 841C685.7 836.4 666.7 828.6 651 824C635.3 819.4 619.3 815.3 609 813.3C598.8 811.2 593.4 811.5 589.5 811.8C585.6 812 587.5 811.4 585.5 814.8C583.5 818.1 578.7 826.2 577.8 832C576.8 837.8 580.1 843.7 579.8 849.5C579.4 855.3 576.2 861.7 575.5 866.8C574.8 871.8 575.9 876.2 575.5 879.8C575.1 883.3 577.4 880.3 573 888.3C568.6 896.2 558.3 915.5 549.3 927.3C540.2 939 524.2 951.5 518.5 958.8C512.8 966 515.3 967.7 515.3 970.5C515.3 973.3 515.8 976 518.5 975.5C521.2 975 519.4 970 531.3 967.3C543.1 964.5 571.7 960.3 589.5 959C607.3 957.7 608.5 958.3 638.3 959.3C668 960.2 734.3 961.9 767.8 964.8C801.2 967.6 818.8 972.1 838.8 976.5C858.7 980.9 868.1 987.8 887.5 991.3C906.9 994.7 941.8 996.3 955.3 997C968.7 997.7 963.4 996.7 968.3 995.3C973.1 993.8 980.2 989.7 984.5 988.5C988.8 987.3 988.9 989.2 994.3 988C999.6 986.8 1008.5 984.5 1016.8 981.3C1025 978 1039.5 970.6 1044 968.5"/>
<path d="M-20 33.3C-16 30.3 -4 19.8 3.8 15.3C11.5 10.7 20 9.9 26.5 6C33 2.1 38.2 -4.9 42.5 -8C46.8 -11.1 49.2 -10.7 52.3 -12.7C55.3 -14.7 59.5 -18.8 61 -20"/>
<path d="M1044 806.5C1033 816.7 992.3 855.9 978 867.8C963.8 879.6 965 875 958.5 877.5C952 880 946.8 881.4 939.3 883C931.7 884.6 920.3 886.5 913.3 887.3C906.2 888 910.5 888.6 897 887.3C883.5 885.9 848.7 880.3 832.5 879C816.3 877.8 807.3 880 799.8 879.8C792.2 879.5 795 878 787 877.3C779 876.5 759.6 875.3 751.5 875.5C743.4 875.7 743.8 877.8 738.5 878.5C733.2 879.2 723.1 878.8 719.8 879.8C716.4 880.7 717.8 882.6 718.3 884C718.7 885.4 721 885.8 722.3 888.3C723.5 890.8 723.3 895.6 725.5 899C727.7 902.4 732 906.8 735.3 908.8C738.5 910.7 741.3 911 745 910.5C748.7 910 754 906.5 757.3 905.5C760.5 904.5 762.8 904.1 764.5 904.8C766.3 905.4 767.2 907.2 767.8 909.5C768.3 911.8 766.7 915.8 767.8 918.5C768.8 921.2 770.3 923.4 774 925.5C777.8 927.6 786.5 930.4 790.3 931.3C794 932.1 794.6 930.3 796.8 930.5C798.9 930.7 799.5 930.6 803.3 932.3C807 933.9 814.6 938.8 819.5 940.5C824.4 942.2 826.6 940.4 832.5 942.5C838.4 944.6 849.1 950.9 855 953.3C860.9 955.6 862.6 955.7 868 956.8C873.4 957.8 880 959.7 887.5 959.5C895 959.3 904.1 955.8 913.3 955.8C922.4 955.8 932.8 959.3 942.5 959.5C952.2 959.8 964.5 958 971.5 957.3C978.5 956.5 979.8 956.9 984.5 954.8C989.2 952.6 989.6 947.8 999.5 944.5C1009.4 941.2 1036.6 936.6 1044 935"/>
</g>
</svg>
