<svg xmlns="http://www.w3.org/2000/svg" viewBox="0 0 295.77 453.5">
  <!-- Decorative topographic contours for the Today screen background.
       Derived from a grid-generated contour plot: simplified (RDP),
       relaxed, and converted to Catmull-Rom cubic curves so the lines
       flow organically instead of stepping. Single colour, no fills. -->
  <g fill="none" stroke="#6f806f" stroke-opacity="0.5" stroke-width="1" stroke-linecap="round" stroke-linejoin="round">
  <path d="M232 0C233.56 2.07 238.53 7.97 241.38 12.44C244.23 16.92 246.66 22.71 249.08 26.87C251.5 31.03 253.88 33.85 255.91 37.41C257.95 40.98 259.78 44.47 261.28 48.27C262.77 52.06 263.82 56.51 264.89 60.19C265.97 63.88 267.26 67.58 267.73 70.39C268.21 73.2 268.25 75.16 267.74 77.06C267.23 78.96 265.8 79.75 264.66 81.78C263.53 83.82 261.92 86.25 260.92 89.26C259.92 92.27 258.82 95.04 258.66 99.85C258.5 104.67 259.84 112.01 259.98 118.15C260.13 124.3 260.23 130.95 259.55 136.72C258.87 142.5 257.27 148.37 255.9 152.79C254.52 157.22 251.79 160.57 251.31 163.27C250.82 165.98 251.13 167.86 252.97 169.03C254.82 170.19 259.46 171.13 262.4 170.27C265.33 169.4 267.98 167.11 270.58 163.83C273.19 160.54 276.39 154.77 278.02 150.56C279.65 146.36 280.39 142.48 280.34 138.58C280.3 134.68 278.39 130.38 277.76 127.19C277.12 123.99 276.61 122.16 276.53 119.41C276.45 116.66 276.74 114.22 277.3 110.71C277.87 107.21 278.52 100.52 279.92 98.37C281.31 96.21 283.96 96.48 285.67 97.77C287.39 99.06 288.52 102.88 290.2 106.11C291.88 109.34 294.84 115.3 295.77 117.14"/>
  <path d="M225.88 0C227.84 3.11 234.08 12.33 237.62 18.68C241.17 25.02 244.73 32.56 247.14 38.08C249.56 43.61 251.1 46.69 252.13 51.83C253.16 56.97 253.74 63.67 253.32 68.92C252.9 74.18 250.84 78.42 249.62 83.36C248.41 88.31 247.06 92.31 246.03 98.61C245.01 104.91 245.03 113.12 243.46 121.16C241.9 129.2 239.21 139.53 236.64 146.87C234.07 154.21 229.64 160.04 228.03 165.2C226.42 170.36 226.97 173.74 226.99 177.85C227.01 181.96 228.07 186.26 228.17 189.85C228.27 193.45 227.94 196.63 227.6 199.42C227.25 202.21 226.57 204.24 226.1 206.58C225.63 208.93 223.58 211.68 224.77 213.5C225.96 215.31 229.24 216.79 233.22 217.49C237.2 218.19 243.42 218.33 248.67 217.71C253.92 217.09 259.47 215.48 264.73 213.78C270 212.08 275.09 209.05 280.26 207.52C285.43 206 293.19 205.11 295.77 204.63"/>
  <path d="M295.77 228.08C294.64 228.46 291.28 229.43 288.96 230.38C286.64 231.33 283.89 233.17 281.85 233.81C279.82 234.44 278.68 234.47 276.75 234.18C274.81 233.88 272.68 232.29 270.24 232.03C267.8 231.77 265.68 232.04 262.12 232.61C258.57 233.17 253.79 235.15 248.94 235.42C244.08 235.68 238.44 234.21 232.99 234.19C227.55 234.18 221.9 234.5 216.28 235.33C210.67 236.16 205.49 237.92 199.29 239.17C193.09 240.41 184.42 241.71 179.08 242.8C173.75 243.88 170.48 244.75 167.25 245.67C164.02 246.6 162.3 246.88 159.7 248.35C157.1 249.83 153.83 251.59 151.64 254.53C149.45 257.46 148.37 261.35 146.56 265.96C144.75 270.57 143.61 277.78 140.76 282.2C137.91 286.62 133.15 289.39 129.47 292.49C125.79 295.6 122.14 298.13 118.69 300.83C115.24 303.52 112.15 306.56 108.77 308.67C105.39 310.78 101.18 311.99 98.43 313.47C95.67 314.95 94.42 315.87 92.25 317.58C90.09 319.28 87.99 321.25 85.42 323.7C82.86 326.15 79.75 329.39 76.86 332.27C73.96 335.15 70.15 337.57 68.05 340.96C65.95 344.35 65.46 349.08 64.26 352.59C63.06 356.11 62.51 358.96 60.87 362.07C59.22 365.17 56.9 368.04 54.39 371.24C51.88 374.43 49.07 378.44 45.83 381.22C42.59 384.01 38.81 386.08 34.94 387.95C31.07 389.83 26.41 390.83 22.61 392.49C18.8 394.16 14.9 395.87 12.11 397.96C9.33 400.05 7.93 402.81 5.91 405.03C3.89 407.25 0.99 410.24 0 411.28"/>
  <path d="M219.76 0C221.43 2.74 226.14 9 229.76 16.45C233.38 23.9 239.04 35.63 241.46 44.7C243.88 53.78 244.52 63.03 244.28 70.9C244.05 78.77 241.48 85.4 240.05 91.92C238.62 98.43 237.8 102.59 235.72 109.99C233.64 117.4 230.74 129.12 227.58 136.34C224.42 143.56 220.47 148.87 216.76 153.34C213.06 157.81 208.01 160.81 205.36 163.16C202.71 165.52 201 165.68 200.88 167.48C200.76 169.29 203.16 170.4 204.67 173.97C206.17 177.55 210.47 184.27 209.9 188.95C209.34 193.64 204.93 198.52 201.28 202.07C197.63 205.62 191.42 207.94 187.99 210.24C184.55 212.54 182.85 213.82 180.67 215.87C178.48 217.92 177.15 220.53 174.88 222.55C172.61 224.56 169.51 226.69 167.03 227.97C164.54 229.25 163.19 229.29 159.98 230.24C156.77 231.18 152.95 232.1 147.77 233.64C142.59 235.17 134.11 237.29 128.89 239.44C123.67 241.59 119.71 244.58 116.46 246.51C113.21 248.44 111.53 249.67 109.4 251.03C107.27 252.4 105.85 253.59 103.68 254.72C101.5 255.85 98.96 256.43 96.34 257.8C93.71 259.17 90.22 261.07 87.91 262.92C85.59 264.77 84.13 267.09 82.46 268.9C80.78 270.71 79.51 272.05 77.85 273.78C76.19 275.51 74.53 277.61 72.49 279.26C70.45 280.91 67.54 281.93 65.63 283.68C63.72 285.43 62.44 286.86 61.01 289.75C59.59 292.64 58.44 297.68 57.09 301.01C55.73 304.35 54.03 307.34 52.86 309.76C51.69 312.17 51.19 313.91 50.05 315.5C48.91 317.09 47.72 317.91 46.01 319.31C44.3 320.71 42.01 322.52 39.77 323.89C37.54 325.26 34.79 326.49 32.6 327.54C30.4 328.6 28.9 329.36 26.62 330.21C24.34 331.06 20.98 331.38 18.91 332.64C16.85 333.9 15.59 335.05 14.24 337.74C12.89 340.44 11.92 345.39 10.81 348.81C9.71 352.23 8.63 355.26 7.62 358.25C6.6 361.25 6.01 364 4.74 366.75C3.47 369.51 0.79 373.45 0 374.79"/>
  <path d="M215.78 0C218.01 3.98 225.45 15.9 229.16 23.87C232.87 31.84 236.45 39.77 238.05 47.82C239.64 55.88 239.63 64.3 238.73 72.21C237.84 80.13 234.71 88.96 232.7 95.33C230.69 101.7 228.97 106.02 226.67 110.42C224.36 114.82 221.31 117.63 218.88 121.74C216.44 125.86 215.03 131.35 212.08 135.11C209.12 138.87 205.47 141.64 201.16 144.3C196.85 146.95 191.07 148.37 186.21 151.03C181.36 153.69 175.12 157.31 172.04 160.27C168.95 163.23 167.63 165.59 167.71 168.79C167.8 171.99 170.86 175.91 172.53 179.49C174.2 183.07 178.06 186.65 177.73 190.27C177.41 193.88 173.86 197.08 170.57 201.17C167.29 205.26 162.47 211.13 158 214.8C153.53 218.48 149.07 220.89 143.73 223.22C138.39 225.55 131.54 226.6 125.95 228.8C120.37 231 115.19 233.3 110.22 236.42C105.26 239.53 101.24 243.57 96.17 247.48C91.1 251.4 84.41 255.97 79.78 259.92C75.16 263.87 71.74 267.88 68.41 271.19C65.08 274.49 62.12 277.13 59.8 279.73C57.48 282.34 56.14 284.3 54.51 286.82C52.89 289.33 52.11 291.89 50.05 294.82C48 297.74 45.18 301.27 42.18 304.38C39.19 307.49 35.24 310.69 32.11 313.47C28.98 316.26 26.17 318.83 23.39 321.09C20.61 323.35 17.94 324.87 15.44 327.03C12.94 329.19 10.27 331.63 8.39 334.05C6.51 336.48 5.56 339 4.17 341.58C2.77 344.17 0.69 348.22 0 349.55"/>
  <path d="M295.77 246.55C293.19 247.44 285.27 250.41 280.32 251.88C275.36 253.36 270.17 253.91 266.04 255.39C261.92 256.87 258.51 259.5 255.56 260.76C252.6 262.03 251.01 263.08 248.31 262.98C245.61 262.89 242.92 261.8 239.35 260.19C235.77 258.58 231.34 255.02 226.85 253.33C222.35 251.65 218.56 250.4 212.38 250.05C206.19 249.71 196.48 250.06 189.71 251.27C182.95 252.49 176.07 254.72 171.8 257.34C167.53 259.95 166.16 262.69 164.09 266.96C162.02 271.23 162.14 278.36 159.37 282.96C156.6 287.56 151.29 291.27 147.47 294.56C143.64 297.86 139.89 300.26 136.43 302.76C132.97 305.25 130.56 307.44 126.71 309.53C122.87 311.62 117.45 313.04 113.34 315.3C109.22 317.56 105.47 320.2 102.01 323.09C98.56 325.99 95.74 329.64 92.61 332.66C89.48 335.69 85.91 337.8 83.23 341.24C80.55 344.68 78.92 348.57 76.54 353.31C74.16 358.05 71.5 363.67 68.96 369.68C66.42 375.69 64.05 383.86 61.31 389.36C58.58 394.87 55.43 399.65 52.56 402.72C49.69 405.8 46.91 406.58 44.09 407.82C41.26 409.07 37.95 409.19 35.61 410.22C33.27 411.25 32.1 412.43 30.04 414.02C27.98 415.6 25.87 417.51 23.24 419.73C20.6 421.95 17.27 425.21 14.22 427.34C11.16 429.46 7.26 431.15 4.89 432.48C2.52 433.8 0.81 434.8 0 435.26"/>
  <path d="M295.77 264.38C291.22 265.28 276.4 268.35 268.48 269.76C260.56 271.18 254.62 272.85 248.25 272.86C241.87 272.87 235.91 271.43 230.21 269.83C224.51 268.23 219.89 265.09 214.06 263.26C208.24 261.44 200.19 259.49 195.26 258.87C190.33 258.25 187.27 258.14 184.48 259.53C181.69 260.91 180.52 263.3 178.54 267.19C176.57 271.07 175.87 278.1 172.62 282.81C169.38 287.52 164.57 291.21 159.1 295.45C153.62 299.68 146.36 304.56 139.78 308.22C133.2 311.89 124.66 314.9 119.63 317.42C114.6 319.95 112.19 321.58 109.59 323.35C107 325.12 106.13 326.05 104.07 328.05C102 330.04 100.12 332.14 97.19 335.31C94.27 338.48 89.65 342.51 86.52 347.05C83.4 351.58 80.67 358.04 78.44 362.5C76.2 366.97 74.66 369.87 73.13 373.83C71.6 377.79 70.68 381.37 69.26 386.27C67.84 391.17 66.33 399.25 64.59 403.25C62.85 407.24 60.88 408.66 58.82 410.25C56.76 411.84 54.38 412.04 52.25 412.76C50.13 413.49 48.29 413.45 46.08 414.6C43.87 415.75 41.52 417.36 38.98 419.68C36.44 421.99 33.72 425.72 30.84 428.47C27.96 431.22 24.25 433.83 21.7 436.17C19.16 438.52 17.48 440.66 15.57 442.52C13.65 444.38 12.18 445.49 10.2 447.32C8.21 449.15 4.74 452.47 3.65 453.5"/>
  <path d="M212.71 0C214.78 3.98 221.72 15.88 225.13 23.87C228.53 31.86 231.85 39.66 233.17 47.97C234.48 56.28 234.52 64.98 233.01 73.76C231.5 82.53 227.35 93.29 224.09 100.6C220.83 107.91 216.46 113.08 213.46 117.61C210.45 122.15 209.46 124.8 206.08 127.8C202.69 130.8 199.68 133.49 193.15 135.61C186.61 137.74 176.51 139.43 166.86 140.53C157.2 141.64 142.48 141.74 135.22 142.23C127.96 142.73 124.57 142.99 123.29 143.49C122.02 144 125.18 144.4 127.57 145.28C129.96 146.16 134.48 146.01 137.63 148.79C140.78 151.57 144.46 155.41 146.47 161.96C148.47 168.5 150 180.22 149.67 188.04C149.34 195.86 146.58 204.22 144.48 208.87C142.38 213.51 140.46 214.2 137.1 215.89C133.73 217.58 128.9 217.26 124.28 219.03C119.66 220.79 114.14 223.21 109.38 226.49C104.62 229.76 99.88 235.02 95.72 238.67C91.55 242.33 88.02 245.43 84.4 248.43C80.78 251.43 77.32 253.67 74 256.67C70.67 259.67 67.89 262.85 64.45 266.44C61.01 270.02 57.38 273.64 53.38 278.18C49.38 282.72 44.26 289.26 40.44 293.66C36.63 298.07 33.65 301.13 30.46 304.61C27.28 308.08 24.27 311.6 21.34 314.5C18.4 317.41 16.42 318.87 12.87 322.02C9.31 325.17 2.14 331.49 0 333.38"/>
  <path d="M0 325.74C2.43 323.6 10.5 316.79 14.61 312.92C18.71 309.05 21.85 305.68 24.65 302.53C27.44 299.38 29.26 296.73 31.4 294.04C33.54 291.34 35.54 289 37.49 286.37C39.45 283.74 40.83 281.18 43.13 278.24C45.42 275.3 48.21 271.8 51.26 268.73C54.31 265.65 58.08 262.77 61.43 259.81C64.79 256.86 67.42 254.51 71.38 251.02C75.35 247.53 79.67 244.09 85.24 238.89C90.82 233.68 99.34 224.8 104.82 219.77C110.3 214.74 114.82 211.64 118.13 208.71C121.43 205.78 122.67 204.03 124.65 202.17C126.63 200.31 128.24 199.29 130 197.53C131.76 195.76 133.99 193.88 135.22 191.55C136.45 189.22 137.21 187.2 137.4 183.54C137.58 179.88 137.45 173.63 136.35 169.59C135.24 165.55 133.11 161.81 130.78 159.33C128.45 156.85 125.75 155.76 122.36 154.71C118.97 153.66 114.2 152.97 110.46 153.01C106.71 153.06 103.23 153.77 99.89 154.98C96.56 156.18 93.35 158.43 90.43 160.23C87.51 162.03 86.78 164.36 82.36 165.78C77.95 167.2 73.34 168.1 63.96 168.76C54.58 169.42 36.67 169.9 26.08 169.73C15.5 169.56 4.71 168.08 0.44 167.75"/>
  <path d="M295.77 276.06C291.19 276.88 276.59 279.56 268.31 280.98C260.03 282.41 253.75 284.22 246.09 284.61C238.43 285 229.14 284.28 222.34 283.34C215.55 282.39 209.6 279.91 205.32 278.94C201.04 277.98 198.97 277.6 196.67 277.56C194.36 277.53 193.07 278.2 191.49 278.72C189.9 279.24 188.99 279.19 187.15 280.67C185.32 282.15 184.14 284.65 180.47 287.58C176.81 290.51 170.46 294.71 165.17 298.24C159.88 301.77 154.44 305.76 148.74 308.76C143.04 311.77 136.23 313.83 130.99 316.29C125.75 318.76 121.4 320.82 117.3 323.55C113.19 326.27 109.77 329.88 106.35 332.65C102.93 335.42 99.79 337.51 96.78 340.17C93.77 342.83 90.63 345.34 88.28 348.62C85.92 351.9 84.29 355.7 82.64 359.86C80.99 364.01 79.54 369.34 78.39 373.54C77.25 377.75 76.41 380.64 75.77 385.09C75.14 389.55 74.87 395.57 74.58 400.27C74.29 404.97 73.62 409.68 74.02 413.29C74.42 416.9 76.17 419.27 76.99 421.94C77.81 424.61 78.78 427.35 78.93 429.31C79.08 431.27 78.54 433.62 77.9 433.69C77.27 433.76 76.62 431.6 75.13 429.72C73.65 427.85 71.47 423.97 69.01 422.42C66.54 420.87 63.63 420.73 60.32 420.43C57 420.13 52.37 419.84 49.1 420.61C45.82 421.38 43.51 422.67 40.65 425.07C37.78 427.46 34.65 431.86 31.9 434.96C29.15 438.06 26.58 440.56 24.15 443.65C21.71 446.74 18.43 451.86 17.29 453.5"/>
  <path d="M209.64 0C211.55 3.98 217.97 15.89 221.12 23.87C224.26 31.85 227.23 39.74 228.49 47.88C229.76 56.03 229.85 64.62 228.73 72.74C227.61 80.86 224.49 90.22 221.75 96.61C219.02 103 215.54 106.88 212.31 111.1C209.07 115.31 206.13 118.83 202.37 121.9C198.61 124.97 195.72 127.42 189.73 129.54C183.74 131.66 175.77 133.46 166.44 134.6C157.1 135.74 143.85 135.71 133.73 136.36C123.61 137 114.37 137.79 105.7 138.46C97.04 139.13 88.09 139.56 81.76 140.37C75.43 141.18 70.93 142.01 67.75 143.34C64.56 144.66 64.38 146.23 62.66 148.32C60.95 150.41 59.43 154.14 57.45 155.88C55.47 157.62 54.11 158.05 50.78 158.77C47.44 159.49 43.33 159.83 37.45 160.19C31.57 160.55 21.74 160.2 15.5 160.94C9.26 161.68 2.58 164 0 164.61"/>
  <path d="M0 174.65C3.24 174.99 11.81 176.37 19.43 176.66C27.05 176.95 37 176.82 45.71 176.38C54.42 175.94 63.77 175.13 71.68 174.04C79.58 172.95 86.94 171.29 93.16 169.85C99.39 168.42 104.35 166.21 109.04 165.43C113.72 164.64 118.55 164.26 121.26 165.16C123.96 166.05 125.01 167.86 125.25 170.8C125.49 173.73 123.53 179.26 122.68 182.78C121.84 186.3 121.59 188.87 120.2 191.93C118.81 194.99 117.14 197.8 114.35 201.14C111.55 204.47 107.63 207.73 103.42 211.95C99.2 216.17 93.39 222.1 89.05 226.47C84.71 230.83 81.62 234.61 77.39 238.13C73.17 241.65 68.77 243.86 63.72 247.58C58.66 251.3 51.56 256.36 47.06 260.44C42.56 264.52 39.61 267.94 36.72 272.07C33.83 276.2 32.05 281.18 29.73 285.23C27.42 289.29 25.05 293.31 22.84 296.39C20.62 299.48 18.54 301.68 16.45 303.73C14.36 305.79 13.03 306.33 10.29 308.73C7.54 311.13 1.71 316.55 0 318.11"/>
  <path d="M0 141.8C4.48 142.75 19.59 146.69 26.9 147.5C34.21 148.31 38.87 147.54 43.87 146.66C48.86 145.77 49.96 144.01 56.86 142.18C63.76 140.35 73.19 137.56 85.29 135.65C97.38 133.75 115.92 131.92 129.44 130.74C142.96 129.55 155.99 130.45 166.41 128.54C176.84 126.63 184.05 124.44 191.98 119.29C199.91 114.13 208.63 105.45 213.99 97.61C219.35 89.77 222.48 80.53 224.14 72.23C225.8 63.93 225.11 55.85 223.94 47.79C222.77 39.73 220.03 31.84 217.13 23.87C214.24 15.9 208.33 3.98 206.57 0"/>
  <path d="M74.69 453.5C73.81 451.48 71.66 444.96 69.38 441.36C67.1 437.76 63.97 434.28 61.02 431.88C58.07 429.47 54.35 427.56 51.68 426.94C49 426.31 47.39 426.69 44.97 428.13C42.54 429.57 39.41 433.18 37.13 435.56C34.86 437.94 33.03 440.43 31.3 442.41C29.58 444.4 28.23 445.63 26.78 447.48C25.33 449.33 23.3 452.5 22.6 453.5"/>
  <path d="M295.77 287.91C292.41 288.36 282.85 289.46 275.6 290.64C268.36 291.81 259.21 293.9 252.29 294.95C245.36 296 239.33 296.73 234.07 296.95C228.8 297.17 224.34 296.9 220.68 296.27C217.02 295.63 215.37 294.03 212.09 293.15C208.81 292.27 205.44 290.93 201.02 290.99C196.59 291.04 191.01 291.72 185.53 293.48C180.05 295.25 173.61 298.7 168.13 301.58C162.65 304.46 158.4 307.93 152.63 310.75C146.86 313.57 139.05 316.01 133.51 318.5C127.96 320.99 123.43 323.05 119.37 325.71C115.31 328.36 112.55 331.61 109.14 334.42C105.73 337.24 102.14 339.61 98.9 342.6C95.67 345.59 92.3 348.42 89.75 352.38C87.2 356.34 85.17 361.25 83.6 366.36C82.04 371.47 80.79 377.18 80.35 383.06C79.92 388.94 80.18 395.86 81 401.65C81.81 407.43 83.84 413.02 85.22 417.76C86.61 422.5 89.06 426.06 89.3 430.09C89.54 434.13 87.77 438.09 86.65 441.99C85.53 445.89 83.27 451.58 82.59 453.5"/>
  <path d="M69.6 453.5C68.91 452.15 67.47 448.12 65.47 445.4C63.47 442.68 60.64 439 57.61 437.18C54.59 435.36 50.67 433.81 47.34 434.5C44 435.18 40.82 438.13 37.58 441.29C34.35 444.46 29.51 451.47 27.9 453.5"/>
  <path d="M0 181.63C3.2 181.91 11.95 183.08 19.19 183.34C26.43 183.6 35.74 183.58 43.43 183.2C51.12 182.82 58.01 182.03 65.32 181.05C72.64 180.08 81.8 178.18 87.34 177.34C92.88 176.5 95.76 176.32 98.56 176.02C101.37 175.72 102.39 175.28 104.14 175.52C105.9 175.76 107.53 176.22 109.08 177.45C110.63 178.68 112.58 180.75 113.45 182.92C114.31 185.09 115.08 187.75 114.28 190.46C113.47 193.17 111.82 195.67 108.61 199.15C105.4 202.64 99.39 207.63 95.01 211.35C90.64 215.08 86.57 218 82.36 221.5C78.16 225 74.99 228.52 69.8 232.36C64.62 236.19 56.97 240.46 51.26 244.52C45.54 248.59 39.24 252.95 35.5 256.74C31.76 260.53 30.81 262.79 28.81 267.27C26.82 271.76 25.66 278.91 23.52 283.64C21.38 288.37 18.52 292.64 15.98 295.66C13.44 298.68 10.89 299.34 8.26 301.78C5.63 304.21 1.55 308.87 0.21 310.29"/>
  <path d="M203.49 0C205.13 3.98 210.65 15.94 213.31 23.87C215.98 31.8 218.23 39.96 219.48 47.59C220.73 55.22 221.13 63.19 220.81 69.65C220.5 76.1 219.59 81.37 217.59 86.3C215.58 91.24 213.54 94.46 208.79 99.28C204.03 104.09 195.88 111.28 189.07 115.19C182.25 119.11 175.57 121.51 167.9 122.78C160.22 124.05 151.45 122.54 143.02 122.83C134.59 123.12 127.55 123.17 117.29 124.51C107.03 125.84 92.54 128.63 81.47 130.82C70.4 133.01 59.79 136.17 50.88 137.64C41.98 139.12 36.52 139.84 28.04 139.65C19.55 139.46 4.67 137.05 0 136.53"/>
  <path d="M295.77 301.05C291.1 301.49 277.22 302.58 267.77 303.66C258.33 304.75 246.98 307.01 239.12 307.56C231.25 308.11 225.46 308.07 220.6 306.95C215.73 305.83 213.3 302.51 209.91 300.86C206.52 299.2 204.14 297.47 200.26 297.03C196.39 296.58 191.45 296.99 186.66 298.17C181.88 299.35 176.8 301.62 171.53 304.1C166.26 306.57 161.11 310.21 155.05 313.02C149 315.83 140.94 318.4 135.21 320.95C129.49 323.49 125.17 325.24 120.7 328.28C116.22 331.32 112.93 334.52 108.36 339.19C103.79 343.87 97.27 349.7 93.29 356.32C89.3 362.95 85.98 372.1 84.46 378.93C82.94 385.77 83.54 391.94 84.17 397.35C84.8 402.76 86.75 407.69 88.23 411.39C89.71 415.1 91.38 417.55 93.04 419.58C94.7 421.6 95.96 422.53 98.2 423.54C100.43 424.55 103.79 424.62 106.43 425.64C109.07 426.67 113.2 428.26 114.04 429.7C114.88 431.14 113.08 432.97 111.48 434.28C109.87 435.6 106.67 436.29 104.41 437.56C102.15 438.83 100.28 439.24 97.93 441.89C95.57 444.55 91.55 451.57 90.28 453.5"/>
  <path d="M161.33 0C160.18 3.32 156.91 14.66 154.45 19.91C151.99 25.16 148.94 28.75 146.55 31.5C144.17 34.25 142.06 36.31 140.15 36.42C138.25 36.54 136.31 34.29 135.13 32.21C133.94 30.13 133.09 26.98 133.07 23.93C133.06 20.87 134.15 17.87 135.04 13.89C135.94 9.9 137.87 2.31 138.43 0"/>
  <path d="M0 278.69C0.49 279.25 1.91 280.74 2.93 282.05C3.94 283.36 4.72 285.13 6.09 286.53C7.45 287.93 9.56 289.9 11.13 290.46C12.69 291.01 14.18 291.29 15.5 289.86C16.83 288.43 17.98 285.87 19.06 281.89C20.15 277.92 20.85 270.57 22.01 266.01C23.16 261.45 24.27 257.77 25.99 254.52C27.72 251.27 29.46 249.18 32.36 246.52C35.25 243.86 38.97 241.2 43.36 238.57C47.74 235.93 54.49 233.18 58.66 230.72C62.84 228.27 65.81 226.23 68.4 223.84C70.98 221.45 72.49 218.48 74.16 216.37C75.82 214.26 76.33 212.77 78.4 211.18C80.46 209.6 83.69 208.36 86.56 206.87C89.43 205.38 92.45 204.44 95.6 202.24C98.76 200.05 103.69 196.06 105.49 193.7C107.29 191.35 107.38 189.81 106.42 188.12C105.46 186.43 102.44 184.48 99.74 183.54C97.03 182.59 94.21 182.2 90.17 182.44C86.13 182.67 80.32 183.99 75.48 184.94C70.65 185.89 66.54 187.33 61.18 188.16C55.81 188.98 50.24 189.57 43.28 189.87C36.32 190.18 26.61 190.19 19.39 189.98C12.18 189.77 3.23 188.84 0 188.61"/>
  <path d="M64.5 453.5C63 451.7 58.39 445.14 55.49 442.68C52.6 440.22 49.75 438.55 47.12 438.75C44.48 438.95 42.12 441.42 39.69 443.88C37.25 446.34 33.71 451.9 32.51 453.5"/>
  <path d="M196.93 0C197.96 1.45 200.91 4.45 203.1 8.69C205.28 12.93 208.09 18.99 210.04 25.47C212 31.94 213.93 40.36 214.83 47.53C215.73 54.7 216.1 62.49 215.43 68.5C214.76 74.51 212.93 78.9 210.83 83.58C208.73 88.26 206.78 92.24 202.83 96.6C198.88 100.97 193.01 106.46 187.12 109.79C181.22 113.12 174.69 115.6 167.45 116.58C160.2 117.56 150.76 115.78 143.62 115.67C136.48 115.56 130.99 115.18 124.58 115.93C118.17 116.68 112.92 118.42 105.15 120.17C97.39 121.91 86.87 124.33 78.01 126.4C69.14 128.46 58.9 131.12 51.96 132.55C45.02 133.98 41.35 134.66 36.35 134.96C31.36 135.26 28.04 134.97 21.98 134.35C15.92 133.74 3.66 131.78 0 131.27"/>
  <path d="M131.79 0C130.7 3.91 126.09 16.32 125.24 23.44C124.38 30.56 125.08 38.2 126.67 42.73C128.25 47.26 132.39 49.28 134.75 50.63C137.1 51.98 138.71 51.63 140.79 50.83C142.87 50.03 144.85 48.37 147.25 45.84C149.64 43.31 152.59 39.79 155.18 35.64C157.76 31.49 160.21 26.87 162.75 20.93C165.28 14.99 169.12 3.49 170.39 0"/>
  <path d="M295.77 313.88C291.44 313.95 276.53 313.91 269.78 314.32C263.03 314.74 258.94 315.64 255.28 316.38C251.62 317.12 250.61 318.19 247.8 318.78C244.98 319.37 241.96 319.77 238.41 319.91C234.87 320.06 229.77 319.9 226.51 319.64C223.24 319.39 220.8 319.12 218.81 318.39C216.81 317.66 215.81 316.64 214.54 315.27C213.27 313.89 212.5 311.85 211.17 310.12C209.84 308.39 208.5 306.16 206.56 304.88C204.61 303.6 202.83 302.66 199.51 302.43C196.19 302.2 191.24 302.52 186.63 303.51C182.03 304.51 176.96 306.35 171.9 308.42C166.83 310.49 162.11 313.45 156.24 315.94C150.38 318.43 142.38 320.89 136.71 323.34C131.04 325.79 126.69 327.59 122.22 330.62C117.76 333.64 114.43 336.89 109.91 341.48C105.39 346.07 98.96 351.97 95.12 358.14C91.29 364.3 88.21 372.5 86.88 378.47C85.55 384.43 86.18 389.06 87.14 393.91C88.11 398.76 89.88 403.48 92.68 407.59C95.48 411.7 99.16 415.46 103.94 418.57C108.73 421.67 116.82 424.26 121.4 426.23C125.97 428.2 130.31 429.04 131.41 430.38C132.5 431.73 129.73 433.19 127.99 434.28C126.25 435.37 123.09 436.08 120.95 436.93C118.81 437.78 117.15 438.62 115.16 439.38C113.17 440.14 111.1 440.44 109.04 441.48C106.97 442.52 104.85 443.64 102.77 445.64C100.7 447.64 97.62 452.19 96.59 453.5"/>
  <path d="M158 453.5C157.37 453.13 155.18 451.26 154.21 451.26C153.25 451.26 152.54 453.13 152.21 453.5"/>
  <path d="M0 196.87C2.58 196.98 10.47 197.45 15.47 197.54C20.47 197.63 25.62 197.34 30.02 197.4C34.42 197.45 38.35 197.58 41.87 197.85C45.39 198.13 48.38 198.56 51.14 199.03C53.9 199.5 56.01 199.47 58.43 200.65C60.86 201.83 64.21 203.91 65.67 206.08C67.13 208.25 67.67 211.35 67.19 213.67C66.7 215.98 65.62 217.67 62.75 219.98C59.87 222.28 55.24 224.59 49.92 227.49C44.59 230.39 35.8 234.19 30.81 237.38C25.82 240.56 23.01 243.49 19.97 246.6C16.93 249.7 15.11 253.92 12.54 256.01C9.97 258.1 6.63 258.43 4.53 259.12C2.44 259.81 0.76 259.99 0 260.16"/>
  <path d="M0 126C4.54 126.46 19.34 128.41 27.25 128.78C35.15 129.14 40.73 128.97 47.45 128.18C54.16 127.39 60.52 125.75 67.53 124.04C74.55 122.33 83.01 119.7 89.53 117.92C96.05 116.14 101.88 114.74 106.65 113.35C111.42 111.95 113.58 110.49 118.14 109.54C122.71 108.58 126.38 107.7 134.04 107.62C141.7 107.54 155.63 109.7 164.11 109.06C172.59 108.43 179.51 106.63 184.91 103.81C190.31 101 193.46 97.06 196.51 92.19C199.55 87.33 201.26 80.12 203.17 74.63C205.08 69.13 206.95 64.18 207.97 59.2C208.99 54.22 209.51 50.13 209.28 44.74C209.05 39.35 208.13 32.18 206.58 26.86C205.04 21.54 203.06 17.28 200.01 12.81C196.97 8.33 190.29 2.13 188.34 0"/>
  <path d="M59.82 453.5C58.68 452.2 55.38 447.23 53 445.73C50.63 444.23 48.42 443.2 45.59 444.49C42.76 445.79 37.64 452 36.05 453.5"/>
  <path d="M74.43 192.17C73.53 193.23 73.97 195.15 75.05 195.83C76.12 196.52 78.71 196.09 80.88 196.27C83.05 196.45 85.91 197 88.06 196.91C90.22 196.82 92.24 196.61 93.8 195.72C95.36 194.83 97.66 192.74 97.42 191.57C97.19 190.39 95.21 189.04 92.38 188.69C89.56 188.34 83.47 188.91 80.48 189.49C77.49 190.07 75.34 191.11 74.43 192.17Z"/>
  <path d="M137.87 453.5C136.4 452.76 131.83 450.03 129.06 449.06C126.29 448.08 123.79 447.99 121.25 447.63C118.71 447.28 116.24 446.69 113.82 446.91C111.4 447.13 108.7 447.85 106.73 448.95C104.75 450.05 102.75 452.74 101.95 453.5"/>
  <path d="M166.94 453.5C164.47 452.36 155.66 448.02 152.11 446.66C148.57 445.29 146.79 446.54 145.67 445.32C144.54 444.11 145.73 441.79 145.38 439.36C145.02 436.93 144.43 433.11 143.56 430.74C142.68 428.36 141.43 426.22 140.12 425.12C138.81 424.02 137.54 424.39 135.72 424.14C133.91 423.89 131.77 424 129.21 423.62C126.65 423.24 124.3 423.37 120.34 421.85C116.38 420.32 109.71 417.61 105.44 414.47C101.16 411.32 97.39 406.86 94.69 402.96C91.99 399.05 90.16 395.14 89.23 391.03C88.29 386.93 87.78 383.49 89.08 378.33C90.37 373.17 93.27 365.82 97 360.06C100.73 354.31 107.02 348.32 111.48 343.8C115.94 339.27 119.29 335.95 123.74 332.93C128.19 329.92 132.56 328.04 138.17 325.69C143.79 323.34 151.74 321 157.42 318.84C163.1 316.68 167.39 314.39 172.26 312.73C177.13 311.08 182.15 309.6 186.64 308.9C191.14 308.21 196.05 307.94 199.22 308.54C202.39 309.14 203.63 310.46 205.67 312.52C207.7 314.57 208.66 318.27 211.46 320.86C214.25 323.44 217.76 325.95 222.44 328.01C227.11 330.07 235.28 332.02 239.53 333.24C243.79 334.46 245.89 335.41 247.97 335.32C250.04 335.23 250.21 334.06 251.97 332.68C253.74 331.3 256.06 328.45 258.58 327.07C261.1 325.68 263.46 324.71 267.1 324.38C270.74 324.06 275.65 324.87 280.43 325.13C285.2 325.4 293.21 325.84 295.77 325.98"/>
  <path d="M184.24 0C182.74 2.11 178.47 7.23 175.21 12.65C171.95 18.06 168.21 26.7 164.69 32.49C161.16 38.29 158.14 43.4 154.06 47.43C149.99 51.46 144.73 54.73 140.23 56.67C135.73 58.6 130.52 59.24 127.06 59.02C123.61 58.79 121.36 57.23 119.47 55.32C117.59 53.41 116.5 50.52 115.74 47.55C114.97 44.58 114.87 41.3 114.87 37.52C114.87 33.75 115.03 29.01 115.72 24.9C116.42 20.79 117.46 17.01 119.03 12.86C120.6 8.71 124.14 2.14 125.16 0"/>
  <path d="M0 120.73C2.65 121.1 10.18 122.47 15.88 122.93C21.58 123.39 27.56 123.69 34.2 123.51C40.83 123.32 49.86 122.66 55.68 121.81C61.5 120.97 65.32 119.81 69.12 118.46C72.92 117.11 74.97 115.1 78.47 113.69C81.96 112.28 85.62 111.16 90.08 110.01C94.54 108.87 101.09 108.11 105.23 106.83C109.38 105.55 112.3 104.72 114.96 102.31C117.62 99.91 120.38 96.45 121.18 92.4C121.99 88.35 121.53 81.91 119.79 78.01C118.06 74.11 113.53 72.17 110.78 69C108.03 65.83 104.92 62.37 103.32 58.97C101.71 55.57 101.04 52.12 101.17 48.59C101.3 45.05 102.98 42.44 104.09 37.77C105.2 33.09 106.43 26.84 107.83 20.55C109.23 14.25 111.72 3.42 112.5 0"/>
  <path d="M0 205.77C2.56 205.68 10.53 205.46 15.37 205.22C20.21 204.98 25.05 204.37 29.05 204.35C33.05 204.33 35.88 204.41 39.38 205.1C42.88 205.79 47.57 206.84 50.04 208.49C52.51 210.14 55.46 212.58 54.19 214.99C52.91 217.4 47.68 220.3 42.4 222.93C37.13 225.57 27.25 228.72 22.54 230.79C17.83 232.85 16.03 233.75 14.15 235.32C12.27 236.89 12.55 238.22 11.25 240.21C9.94 242.2 8.21 245.26 6.34 247.27C4.46 249.27 1.06 251.42 0 252.25"/>
  <path d="M55.47 453.5C54.71 452.63 52.5 449.31 50.91 448.31C49.33 447.31 47.85 446.62 45.96 447.48C44.07 448.35 40.65 452.5 39.59 453.5"/>
  <path d="M60.96 71.61C61.09 72.3 61.09 72.68 61.31 73.07C61.53 73.46 61.82 73.78 62.27 73.97C62.72 74.16 62.51 74.63 63.99 74.24C65.47 73.85 70.64 73.26 71.14 71.61C71.64 69.96 68.49 65.92 67.01 64.34C65.53 62.76 63.36 61.39 62.27 62.15C61.19 62.91 60.72 67.32 60.5 68.9C60.28 70.48 60.83 70.92 60.96 71.61Z"/>
  <path d="M115.04 453.5C114.23 453.19 111.33 451.85 110.18 451.64C109.03 451.43 108.62 451.92 108.14 452.23C107.66 452.54 107.46 453.29 107.32 453.5"/>
  <path d="M133.39 96.57C137.7 98.82 146.55 101.37 152.85 102.32C159.14 103.26 165.74 103.97 171.15 102.25C176.55 100.54 181.83 96.59 185.29 92.03C188.75 87.47 190.07 79.71 191.91 74.87C193.75 70.04 194.78 66.13 196.34 63.02C197.9 59.9 200.02 58.96 201.26 56.18C202.51 53.4 203.47 50.78 203.8 46.33C204.12 41.89 204.02 33.95 203.21 29.49C202.4 25.03 201.31 22.31 198.94 19.59C196.57 16.88 191.88 13.79 189 13.19C186.11 12.58 183.56 14.24 181.64 15.97C179.73 17.7 178.59 21.02 177.5 23.55C176.41 26.07 176.17 28.63 175.09 31.1C174.01 33.57 172.62 35.73 171 38.37C169.37 41.01 167.73 44.14 165.34 46.95C162.95 49.75 160.27 52.47 156.68 55.21C153.09 57.96 147.33 61.31 143.8 63.41C140.26 65.5 138.01 65.78 135.48 67.79C132.94 69.81 130.03 71.98 128.61 75.49C127.19 79 126.16 85.33 126.96 88.84C127.76 92.35 129.07 94.33 133.39 96.57Z"/>
  <path d="M173.97 453.5C170.93 451.17 160.2 443.64 155.74 439.5C151.28 435.36 149.78 431.92 147.2 428.64C144.61 425.37 142.68 421.49 140.25 419.85C137.81 418.22 135.64 419.13 132.56 418.84C129.48 418.55 126.1 419.51 121.76 418.1C117.42 416.69 110.92 414.02 106.53 410.37C102.15 406.71 97.97 400.93 95.44 396.17C92.92 391.41 91.62 386.43 91.37 381.83C91.13 377.22 92.32 372.67 93.95 368.55C95.58 364.42 97.86 360.97 101.15 357.07C104.43 353.16 109.64 348.76 113.66 345.12C117.68 341.49 120.92 338.1 125.25 335.25C129.57 332.41 134.09 330.3 139.61 328.06C145.13 325.82 153.31 323.52 158.35 321.83C163.4 320.13 166.86 318.75 169.89 317.87C172.91 316.99 174.34 316.96 176.49 316.53C178.64 316.11 180.98 315.45 182.79 315.34C184.59 315.22 185.78 315.39 187.34 315.85C188.89 316.31 190.45 317.01 192.11 318.07C193.78 319.13 195.22 319.96 197.31 322.23C199.4 324.49 201.4 329.13 204.67 331.66C207.93 334.18 212.93 335.62 216.91 337.37C220.9 339.13 225.08 340.13 228.57 342.21C232.06 344.29 235.38 346.6 237.85 349.86C240.33 353.12 242.04 356.84 243.41 361.78C244.78 366.72 245.17 375.57 246.09 379.5C247 383.44 247.91 387.98 248.9 385.41C249.89 382.84 250.79 370.64 252.03 364.1C253.27 357.56 254.77 350.77 256.37 346.18C257.97 341.59 259.76 338.6 261.64 336.57C263.52 334.54 264.63 334.17 267.66 333.99C270.68 333.81 275.11 335.07 279.79 335.48C284.48 335.88 293.11 336.26 295.77 336.42"/>
  <path d="M0 214.67C4.45 214.32 20.3 212.49 26.72 212.57C33.14 212.65 38.09 214.14 38.53 215.15C38.96 216.17 32.71 217.95 29.34 218.63C25.98 219.31 21.53 218.95 18.34 219.24C15.15 219.53 12.5 220.12 10.22 220.36C7.93 220.61 5.48 219.42 4.64 220.73C3.81 222.04 5.17 225.5 5.2 228.22C5.24 230.93 5.25 234.73 4.83 237.04C4.4 239.35 3.47 240.85 2.67 242.07C1.87 243.28 0.45 243.96 0 244.34"/>
  <path d="M51.11 453.5C50.73 452.97 49.53 451.05 48.8 450.29C48.06 449.53 47.65 448.38 46.7 448.92C45.75 449.46 43.72 452.74 43.12 453.5"/>
  <path d="M89.94 0C90.52 1.65 92.36 7 93.44 9.92C94.51 12.84 95.79 15.24 96.4 17.53C97.01 19.82 97.42 21.59 97.09 23.65C96.76 25.7 96.21 27.57 94.44 29.86C92.67 32.15 89.74 35.43 86.48 37.4C83.22 39.37 78.56 40.8 74.87 41.68C71.18 42.56 67.23 42.57 64.34 42.7C61.45 42.84 59.74 42.51 57.52 42.49C55.29 42.48 52.77 42.63 51.01 42.61C49.25 42.59 47.95 42.08 46.95 42.37C45.94 42.65 45.01 43.06 44.97 44.32C44.93 45.59 45.38 47.11 46.71 49.94C48.04 52.78 51.03 57.18 52.95 61.3C54.87 65.43 56.21 71.31 58.25 74.72C60.28 78.13 61.85 80.17 65.15 81.79C68.46 83.4 73.42 84.09 78.09 84.43C82.75 84.77 88.48 83.66 93.15 83.83C97.81 84 102.86 84.5 106.07 85.44C109.28 86.37 111.1 87.89 112.39 89.44C113.68 90.99 114.11 93.19 113.8 94.72C113.49 96.26 112.35 97.61 110.53 98.63C108.7 99.65 106.1 100.3 102.83 100.83C99.56 101.35 94.34 101.68 90.9 101.79C87.47 101.91 84.89 101.12 82.21 101.52C79.52 101.91 78.25 102.43 74.81 104.17C71.36 105.9 66.83 109.88 61.54 111.95C56.25 114.01 50 115.96 43.05 116.58C36.1 117.2 27 116.61 19.83 115.66C12.65 114.72 3.3 111.71 0 110.92"/>
  <path d="M150.31 93.52C152.15 95.58 154.77 96.46 157.84 97.08C160.92 97.69 165.77 97.83 168.76 97.22C171.74 96.61 173.95 95.58 175.75 93.41C177.56 91.24 178.74 87.76 179.59 84.21C180.43 80.66 181.15 75.9 180.84 72.11C180.53 68.32 179.38 64.04 177.72 61.49C176.07 58.94 173.68 56.8 170.88 56.82C168.08 56.83 164.58 59 160.91 61.59C157.24 64.18 151.22 68.5 148.87 72.35C146.52 76.21 146.56 81.19 146.8 84.72C147.04 88.25 148.47 91.46 150.31 93.52Z"/>
  <path d="M216.42 453.5C218.67 453.06 226.34 451.94 229.95 450.85C233.56 449.76 236.01 448.08 238.09 446.95C240.17 445.82 241.51 445.54 242.42 444.07C243.32 442.59 243.27 440.78 243.53 438.1C243.79 435.42 244.37 432.28 243.99 428.01C243.6 423.75 242.65 418.28 241.23 412.51C239.81 406.73 236.9 399.03 235.46 393.35C234.02 387.67 233.44 383.74 232.58 378.44C231.72 373.14 231.72 366.16 230.29 361.54C228.87 356.92 226.65 353.34 224.02 350.73C221.38 348.12 218.29 347.38 214.47 345.87C210.64 344.37 204.35 343.56 201.06 341.68C197.78 339.81 196.46 336.88 194.76 334.62C193.05 332.36 192.6 329.84 190.84 328.12C189.08 326.4 187.19 325.2 184.2 324.29C181.2 323.39 176.81 322.6 172.87 322.69C168.94 322.78 165.57 323.64 160.59 324.83C155.61 326.03 148.73 327.48 143.01 329.85C137.29 332.23 132.36 334.37 126.28 339.07C120.19 343.77 111.64 351.62 106.48 358.06C101.32 364.5 96.98 372.16 95.32 377.69C93.67 383.22 94.51 386.47 96.54 391.27C98.57 396.06 103.32 402.6 107.5 406.46C111.68 410.33 117.66 413.17 121.62 414.46C125.59 415.75 128.28 414.5 131.27 414.2C134.27 413.89 136.93 411.63 139.59 412.62C142.25 413.61 144.36 416.71 147.23 420.15C150.1 423.58 152.9 428.95 156.8 433.24C160.7 437.53 166.9 442.52 170.64 445.9C174.38 449.27 177.81 452.23 179.24 453.5"/>
  <path d="M185.48 358.03C185.52 358.51 185.77 359.03 185.99 359.27C186.21 359.51 186.28 359.67 186.8 359.46C187.32 359.25 188.52 359.15 189.09 358.03C189.66 356.91 190.63 353.46 190.25 352.74C189.87 352.02 187.55 353.08 186.8 353.69C186.05 354.3 185.97 355.69 185.75 356.41C185.53 357.13 185.44 357.55 185.48 358.03Z"/>
  <path d="M183.83 24.56C183.67 25.88 183.66 27.96 184.21 29.29C184.77 30.63 186.05 32.43 187.13 32.59C188.22 32.74 190.02 31.56 190.72 30.22C191.42 28.88 191.81 26.14 191.33 24.56C190.85 22.97 188.86 21.25 187.83 20.71C186.79 20.18 185.8 20.72 185.14 21.36C184.47 22 183.98 23.24 183.83 24.56Z"/>
  <path d="M295.77 343.41C292.36 343.45 280.38 343.15 275.34 343.66C270.29 344.16 267.88 344.96 265.51 346.43C263.14 347.91 262.23 349.38 261.1 352.5C259.98 355.61 259.24 358.83 258.75 365.1C258.25 371.38 257.9 382.28 258.11 390.17C258.32 398.06 259.35 406.02 260 412.46C260.66 418.9 262.35 423.9 262.04 428.82C261.74 433.73 259.59 437.83 258.16 441.94C256.72 446.06 254.21 451.57 253.42 453.5"/>
  <path d="M0 99.47C2.33 99.95 8.35 101.41 13.98 102.36C19.61 103.32 26.73 105.3 33.79 105.22C40.86 105.14 50.93 103.4 56.4 101.89C61.86 100.38 65.1 97.81 66.6 96.16C68.09 94.51 66.27 93.22 65.37 91.98C64.47 90.75 62.86 90.62 61.18 88.74C59.51 86.86 57.26 84.27 55.33 80.69C53.39 77.12 51.65 71.39 49.58 67.3C47.51 63.22 44.77 59.47 42.9 56.18C41.02 52.88 39.74 50.35 38.33 47.54C36.92 44.73 36.31 41.96 34.43 39.32C32.55 36.67 28.99 34.18 27.04 31.68C25.09 29.18 22.82 26.44 22.73 24.32C22.64 22.21 24.64 19.89 26.49 18.97C28.35 18.05 30.68 17.89 33.85 18.79C37.01 19.69 41.89 22.31 45.5 24.39C49.1 26.46 52.33 29.62 55.48 31.24C58.63 32.85 61.07 33.72 64.39 34.1C67.7 34.47 72.35 34.2 75.36 33.48C78.38 32.77 80.84 32.12 82.48 29.81C84.13 27.5 85.47 24.58 85.23 19.62C85 14.65 81.76 3.27 81.07 0"/>
  <path d="M162.74 72.59C162.51 74.04 164.56 76.66 165.87 77.58C167.18 78.51 169.43 79 170.59 78.16C171.75 77.33 172.73 74.22 172.83 72.57C172.92 70.92 172.1 68.86 171.17 68.24C170.25 67.62 168.68 68.12 167.28 68.85C165.87 69.57 162.98 71.13 162.74 72.59Z"/>
  <path d="M197.39 453.5C201.56 452.47 216.49 449.39 222.41 447.32C228.34 445.26 230.49 443.03 232.96 441.11C235.42 439.19 236.25 437.75 237.21 435.8C238.17 433.85 238.71 431.82 238.73 429.42C238.75 427.01 238.16 424.78 237.33 421.36C236.49 417.95 234.93 413.89 233.73 408.93C232.53 403.97 231.29 396.74 230.11 391.6C228.94 386.46 228.02 382.9 226.7 378.1C225.38 373.29 224.19 366.54 222.19 362.77C220.2 358.99 217.91 356.77 214.74 355.44C211.57 354.11 206.29 354.26 203.18 354.78C200.08 355.3 198.55 357.19 196.1 358.56C193.65 359.93 190.59 362.33 188.48 363.01C186.36 363.68 184.6 363.58 183.41 362.63C182.22 361.68 181.49 359.61 181.34 357.31C181.2 355.02 181.81 351.8 182.56 348.86C183.31 345.92 185.05 341.85 185.85 339.69C186.64 337.52 187.47 337.03 187.34 335.89C187.2 334.74 186.63 334.1 185.03 332.8C183.42 331.51 179.95 329.18 177.7 328.13C175.45 327.08 173.49 326.63 171.52 326.49C169.56 326.35 168.59 326.78 165.92 327.28C163.26 327.79 160.74 327.62 155.52 329.52C150.31 331.42 142 333.86 134.64 338.68C127.28 343.51 116.89 351.25 111.35 358.45C105.8 365.66 101.78 374.58 101.38 381.9C100.99 389.22 105.61 397.52 108.97 402.38C112.34 407.24 118.1 409.72 121.57 411.06C125.05 412.41 127.22 411.32 129.83 410.46C132.43 409.6 135.04 406.55 137.2 405.91C139.37 405.27 140.73 404.98 142.82 406.62C144.91 408.25 147.3 412.15 149.74 415.72C152.17 419.28 154.67 424.36 157.42 428.01C160.18 431.66 163.18 434.69 166.26 437.61C169.34 440.53 172.85 442.86 175.9 445.51C178.94 448.16 183.07 452.17 184.51 453.5"/>
  <path d="M266.76 453.5C267.41 451.43 269.84 444.99 270.64 441.07C271.44 437.15 271.9 434.31 271.57 429.97C271.24 425.64 269.69 422.22 268.64 415.08C267.6 407.94 265.54 395.76 265.29 387.13C265.03 378.5 265.64 369.13 267.11 363.3C268.58 357.48 271.5 354.45 274.1 352.15C276.69 349.85 279.09 349.8 282.7 349.51C286.31 349.21 293.59 350.24 295.77 350.39"/>
  <path d="M70.3 0C70.71 1.52 71.69 6.3 72.77 9.14C73.84 11.98 75.84 14.8 76.77 17.06C77.7 19.32 78.8 21.36 78.35 22.7C77.9 24.03 76.68 24.91 74.05 25.06C71.42 25.22 66.11 24.87 62.59 23.64C59.06 22.41 55.95 19.32 52.92 17.68C49.89 16.05 47.68 15.03 44.41 13.81C41.14 12.6 36.45 11.13 33.31 10.37C30.17 9.62 27.74 9.49 25.57 9.29C23.41 9.08 22.26 8.51 20.35 9.15C18.43 9.79 15.89 10.53 14.08 13.15C12.28 15.76 8.78 20.54 9.52 24.86C10.26 29.17 15.16 34.89 18.51 39.03C21.86 43.16 26.35 45.95 29.6 49.65C32.85 53.36 35.6 57.21 37.99 61.27C40.38 65.32 43.08 69.63 43.95 73.98C44.83 78.32 44 83.87 43.24 87.32C42.47 90.76 40.93 92.94 39.35 94.66C37.77 96.37 35.74 97.28 33.75 97.61C31.76 97.93 30.3 97.52 27.42 96.61C24.54 95.69 21.05 93.33 16.48 92.11C11.91 90.89 2.75 89.77 0 89.3"/>
  <path d="M102.88 384.42C103.33 388.76 106.03 394.62 108 398.08C109.97 401.54 111.93 403.74 114.7 405.18C117.48 406.61 121.34 407.13 124.64 406.66C127.95 406.19 131.95 403.46 134.53 402.37C137.11 401.27 138.35 400.04 140.13 400.09C141.9 400.14 142.97 400.52 145.19 402.65C147.4 404.78 149.85 408.34 153.41 412.87C156.98 417.4 160.76 424.49 166.6 429.82C172.44 435.15 181.1 442.01 188.47 444.85C195.84 447.69 204.75 447.61 210.82 446.87C216.89 446.13 221.61 444.25 224.88 440.41C228.14 436.58 229.98 430.9 230.38 423.87C230.79 416.84 228.63 405.29 227.3 398.24C225.96 391.19 223.91 386.29 222.38 381.56C220.84 376.84 219.59 372.81 218.1 369.89C216.61 366.98 215.35 365.26 213.43 364.05C211.52 362.84 208.95 362.7 206.63 362.63C204.31 362.57 202.49 362.81 199.51 363.69C196.52 364.58 191.86 367.49 188.71 367.93C185.55 368.38 182.59 368.2 180.58 366.35C178.57 364.49 177.28 360.49 176.64 356.81C176 353.12 176.71 347.79 176.73 344.25C176.75 340.71 177.75 337.67 176.74 335.59C175.74 333.51 174.02 332.29 170.7 331.79C167.38 331.28 162.33 331.15 156.83 332.57C151.32 333.98 144.4 336.26 137.67 340.27C130.94 344.29 121.83 351.36 116.44 356.65C111.04 361.94 107.56 367.38 105.3 372C103.05 376.63 102.43 380.07 102.88 384.42Z"/>
  <path d="M281.53 453.5C281.07 449.97 280.12 438.55 278.79 432.31C277.46 426.08 275.12 421.55 273.55 416.08C271.98 410.62 270.28 405.18 269.37 399.55C268.46 393.92 267.81 387.7 268.11 382.29C268.42 376.88 269.13 371.07 271.2 367.09C273.27 363.11 276.49 360.05 280.51 358.42C284.53 356.8 292.84 357.51 295.31 357.33"/>
  <path d="M0 79.82C2.87 79.81 12.87 79.89 17.23 79.73C21.59 79.58 23.88 79.25 26.16 78.87C28.43 78.5 29.77 78.64 30.87 77.48C31.98 76.31 33.38 74.06 32.79 71.89C32.2 69.73 30.29 67.27 27.33 64.51C24.36 61.74 18.41 58.12 15 55.3C11.6 52.49 9.38 50.1 6.88 47.63C4.38 45.16 1.15 41.69 0 40.5"/>
  <path d="M0 7.24L7.05 0"/>
  <path d="M27.92 0C31.04 0.53 41.78 3.17 46.67 3.17C51.56 3.17 55.49 0.53 57.26 0"/>
  <path d="M107.37 384.66C108.13 388.36 111.32 393.31 113.66 396.47C115.99 399.63 119.17 402.41 121.38 403.61C123.59 404.82 124.81 404.45 126.9 403.68C128.99 402.91 131.7 400.21 133.93 399C136.15 397.79 138.08 396.44 140.26 396.44C142.44 396.43 144.34 396.83 147.02 398.98C149.7 401.13 152.8 404.83 156.32 409.34C159.84 413.85 164.14 421.33 168.14 426.03C172.15 430.73 176.69 434.51 180.36 437.56C184.02 440.61 187.33 442.92 190.14 444.34C192.95 445.77 194.76 445.8 197.21 446.12C199.66 446.44 201.71 446.64 204.84 446.25C207.96 445.86 212.72 445.15 215.95 443.78C219.18 442.4 222.24 441.35 224.2 437.99C226.15 434.64 227.97 430.36 227.68 423.64C227.38 416.92 225.17 405.55 222.44 397.69C219.71 389.83 214.92 381.01 211.29 376.49C207.67 371.96 204.33 370.89 200.7 370.52C197.07 370.14 192.51 373.14 189.5 374.23C186.5 375.33 184.69 375.89 182.69 377.08C180.69 378.27 179.21 380.27 177.48 381.38C175.75 382.5 173.66 384.97 172.3 383.79C170.94 382.6 170.38 380.34 169.33 374.28C168.28 368.23 168.44 353.51 166 347.47C163.56 341.42 159.31 338.55 154.71 338.01C150.1 337.48 144.12 340.8 138.37 344.26C132.61 347.72 125.04 353.78 120.16 358.78C115.28 363.78 111.23 369.96 109.1 374.27C106.96 378.58 106.61 380.96 107.37 384.66Z"/>
  <path d="M288.21 453.5C287.39 449.87 285.13 438.1 283.26 431.73C281.39 425.36 278.66 420.24 276.98 415.29C275.31 410.35 274.1 407.15 273.2 402.06C272.3 396.98 271.39 389.86 271.56 384.79C271.73 379.72 272.61 375.05 274.22 371.65C275.82 368.25 278.57 365.51 281.17 364.4C283.78 363.29 287.42 364.24 289.85 364.99C292.28 365.74 294.78 368.25 295.77 368.9"/>
  <path d="M111.61 383.96C112.23 386.8 114.68 390.37 117.13 392.51C119.59 394.64 122.79 396.58 126.35 396.78C129.9 396.98 134.83 394.24 138.46 393.69C142.08 393.13 145.31 393.08 148.09 393.47C150.87 393.86 153.19 395.06 155.15 396.04C157.11 397.03 158.51 397.25 159.84 399.36C161.17 401.46 161.11 404.68 163.12 408.68C165.12 412.67 168.49 419.14 171.85 423.32C175.22 427.49 179.65 430.84 183.29 433.74C186.93 436.65 190.25 439.18 193.7 440.74C197.14 442.3 200.31 443.06 203.95 443.11C207.59 443.17 212.37 442.22 215.52 441.07C218.67 439.91 221.13 439.03 222.83 436.2C224.53 433.38 225.73 429.58 225.74 424.11C225.75 418.65 224.11 408.94 222.88 403.43C221.64 397.92 219.85 394.16 218.31 391.04C216.78 387.92 215.55 386.94 213.67 384.71C211.79 382.48 209.95 378.79 207.04 377.65C204.13 376.51 201.21 376.3 196.21 377.88C191.21 379.46 181.96 385.36 177.03 387.14C172.11 388.91 168.78 389.99 166.66 388.53C164.55 387.08 164.68 382.99 164.35 378.4C164.03 373.82 165.16 366.01 164.72 361.04C164.27 356.08 163.55 351.46 161.67 348.63C159.79 345.8 157.13 344.03 153.44 344.06C149.76 344.1 144.44 346.08 139.56 348.83C134.68 351.58 128.51 356.12 124.15 360.56C119.78 365 115.46 371.56 113.37 375.46C111.28 379.36 110.98 381.12 111.61 383.96Z"/>
  <path d="M295.77 380.91C294.43 379.54 290.22 374.55 287.73 372.72C285.23 370.89 282.76 369.58 280.8 369.94C278.84 370.3 276.98 372.11 275.99 374.87C274.99 377.64 274.35 381.3 274.82 386.52C275.29 391.75 276.92 399.65 278.8 406.23C280.68 412.82 283.45 418.16 286.13 426.04C288.81 433.91 293.43 448.92 294.89 453.5"/>
  <path d="M116.32 381.61C116.38 384.35 117.91 387.36 119.31 389.24C120.71 391.12 122.73 392.59 124.74 392.9C126.74 393.2 128.97 391.82 131.33 391.07C133.69 390.32 136.58 388.95 138.9 388.37C141.22 387.78 143.01 387.84 145.25 387.56C147.49 387.28 150.31 387.04 152.36 386.68C154.42 386.32 156.41 386.92 157.59 385.38C158.77 383.85 158.87 381.38 159.45 377.47C160.02 373.56 161.05 366.14 161.04 361.92C161.02 357.71 160.71 354.28 159.38 352.19C158.04 350.1 155.95 349.28 153 349.39C150.05 349.5 145.05 351.43 141.68 352.84C138.3 354.25 135.03 356.31 132.73 357.84C130.42 359.36 129.33 360.7 127.85 361.97C126.37 363.25 125.32 363.7 123.84 365.5C122.36 367.31 120.23 370.11 118.97 372.8C117.72 375.48 116.27 378.87 116.32 381.61Z"/>
  <path d="M166.66 406.8C167.27 409.6 169.22 413.49 171 416.27C172.78 419.04 174.75 421.04 177.35 423.46C179.95 425.88 183.59 428.38 186.6 430.78C189.61 433.18 192.46 436.26 195.42 437.85C198.38 439.44 201.06 440.24 204.35 440.33C207.65 440.42 212.35 439.36 215.2 438.37C218.05 437.38 220.06 436.75 221.46 434.41C222.86 432.06 223.65 429 223.62 424.31C223.58 419.61 222.31 410.97 221.25 406.22C220.19 401.47 218.85 398.64 217.24 395.82C215.63 392.99 213.57 391.59 211.59 389.3C209.61 387.01 207.32 383.48 205.38 382.06C203.45 380.64 202.24 380.29 199.97 380.77C197.7 381.25 194.41 383.6 191.76 384.96C189.1 386.32 187.08 387.23 184.06 388.93C181.04 390.62 176.44 393.37 173.65 395.12C170.86 396.88 168.49 397.51 167.32 399.46C166.16 401.41 166.04 404 166.66 406.8Z"/>
  <path d="M295.77 390.13C295.1 389.72 292.92 389.02 291.76 387.68C290.6 386.34 290 383.93 288.81 382.08C287.63 380.24 286.03 377.83 284.66 376.61C283.29 375.4 281.72 374.6 280.56 374.81C279.41 375.02 278.28 376.01 277.73 377.86C277.17 379.71 276.95 382.39 277.25 385.9C277.54 389.41 278.84 395.89 279.48 398.94C280.12 401.99 280.51 402.62 281.1 404.2C281.69 405.79 281.75 405.76 283.01 408.44C284.28 411.12 286.57 414.87 288.7 420.27C290.82 425.67 294.59 437.4 295.77 440.83"/>
  <path d="M120.51 382.28C120.99 384.01 122.53 386.41 124.38 387.07C126.22 387.72 128.4 387.17 131.58 386.2C134.76 385.23 140.32 383.06 143.45 381.25C146.59 379.44 148.47 377.16 150.39 375.33C152.31 373.5 153.9 372.71 154.98 370.27C156.06 367.82 157.22 363.09 156.9 360.67C156.57 358.25 155.02 356.22 153.05 355.75C151.07 355.29 146.91 356.96 145.05 357.87C143.19 358.78 142.96 360.16 141.91 361.21C140.85 362.26 140.3 362.91 138.72 364.18C137.14 365.45 134.6 367.51 132.43 368.84C130.26 370.16 127.51 370.84 125.69 372.14C123.87 373.44 122.37 374.97 121.51 376.66C120.65 378.35 120.04 380.55 120.51 382.28Z"/>
  <path d="M171.75 408.22C173.19 410.42 176.46 414.29 179.01 417.03C181.56 419.78 184.97 422.47 187.05 424.7C189.13 426.93 189.81 428.53 191.48 430.4C193.16 432.26 194.9 434.69 197.1 435.9C199.31 437.12 201.73 437.73 204.69 437.7C207.66 437.66 212.31 436.52 214.87 435.67C217.44 434.83 218.99 434.47 220.09 432.61C221.19 430.75 221.57 428.43 221.49 424.5C221.41 420.57 220.51 412.98 219.61 409.03C218.71 405.09 217.79 403.16 216.09 400.81C214.4 398.47 211.57 396.93 209.42 394.97C207.28 393 205.04 390.19 203.22 389.01C201.4 387.83 200.28 387.67 198.51 387.89C196.75 388.11 194.95 389.36 192.65 390.35C190.35 391.34 187.7 392.13 184.69 393.81C181.68 395.49 176.97 398.76 174.59 400.42C172.21 402.08 170.89 402.49 170.42 403.79C169.94 405.09 170.32 406.01 171.75 408.22Z"/>
  <path d="M295.77 399.1C295.13 399.31 292.74 399.31 291.9 400.37C291.07 401.43 290.61 403.41 290.76 405.45C290.9 407.49 291.95 409.54 292.78 412.63C293.62 415.71 295.27 422.06 295.77 423.95"/>
  <path d="M278.82 381.9C278.98 383.33 279.31 387.98 280.2 388.98C281.09 389.99 283.63 389.11 284.14 387.93C284.64 386.75 283.66 383.25 283.23 381.9C282.8 380.55 282.06 380.29 281.55 379.83C281.05 379.37 280.59 379.01 280.2 379.11C279.81 379.21 279.46 379.94 279.23 380.4C279 380.86 278.66 380.47 278.82 381.9Z"/>
  <path d="M122.78 381.9C122.94 382.51 123.28 384.07 124.53 384.07C125.78 384.07 129.9 382.81 130.26 381.9C130.62 380.99 127.64 379.09 126.69 378.59C125.73 378.09 125.05 378.59 124.53 378.89C124.01 379.19 123.84 379.89 123.55 380.39C123.26 380.89 122.62 381.29 122.78 381.9Z"/>
  <path d="M174.26 405.77C175.56 407.13 179.44 411.3 182.05 413.93C184.67 416.56 187.91 419.05 189.96 421.55C192 424.04 192.85 426.81 194.31 428.88C195.76 430.95 196.89 432.93 198.69 433.96C200.48 434.99 202.4 435.34 205.07 435.04C207.75 434.74 212.44 433.69 214.73 432.16C217.02 430.63 218.29 428.81 218.81 425.84C219.32 422.87 218.61 417.38 217.82 414.35C217.03 411.31 215.9 409.55 214.06 407.63C212.23 405.72 208.82 404.19 206.81 402.87C204.81 401.56 203.53 400.54 202.03 399.77C200.52 398.99 199.3 398.76 197.79 398.22C196.27 397.68 194.63 396.69 192.95 396.52C191.27 396.35 189.25 396.4 187.73 397.2C186.21 398.01 185.15 399.93 183.83 401.36C182.51 402.79 180.48 405.03 179.81 405.77"/>
  <path d="M182.67 406.54C183.16 408.08 185.29 410.68 186.99 411.73C188.68 412.77 191.48 413.63 192.84 412.82C194.21 412 195.43 408.7 195.17 406.84C194.91 404.99 192.62 402.73 191.28 401.7C189.94 400.68 188.34 400.58 187.13 400.71C185.92 400.84 184.77 401.5 184.02 402.48C183.28 403.45 182.18 405 182.67 406.54Z"/>
  <path d="M197.1 429.63C197.61 430.19 199.28 432.79 200.16 433.02C201.04 433.25 201.2 431.58 202.37 431.02C203.54 430.45 206.75 430.5 207.16 429.63C207.57 428.76 205.66 426.85 204.86 425.82C204.06 424.79 203.18 423.43 202.37 423.46C201.56 423.49 200.3 424.98 200 426.01C199.7 427.04 200.5 429.03 200.6 429.63"/>
  <path d="M200.6 429.63C201 430.46 201.28 431.02 202.37 431.02C203.46 431.02 206.75 430.5 207.16 429.63C207.57 428.76 205.66 426.85 204.86 425.82C204.06 424.79 203.18 423.43 202.37 423.46C201.56 423.49 200.3 424.98 200 426.01C199.7 427.04 200.2 428.8 200.6 429.63Z"/>
  </g>
</svg>
